<?xml version="1.0" standalone="no"?>
<!DOCTYPE svg PUBLIC "-//W3C//DTD SVG 20010904//EN"
 "http://www.w3.org/TR/2001/REC-SVG-20010904/DTD/svg10.dtd">
<svg version="1.0" xmlns="http://www.w3.org/2000/svg"
 width="750.000000pt" height="761.000000pt" viewBox="0 0 750.000000 761.000000"
 preserveAspectRatio="xMidYMid meet">

<g transform="translate(0.000000,761.000000) scale(0.100000,-0.100000)"
fill="#000000" stroke="none">
<path d="M5190 7054 c0 -11 -6 -15 -20 -11 -11 3 -20 2 -20 -3 0 -4 9 -10 19
-13 13 -3 22 3 30 19 6 15 7 24 1 24 -6 0 -10 -7 -10 -16z"/>
<path d="M4806 7024 c-4 -15 -4 -39 -1 -55 5 -24 3 -29 -12 -30 -10 0 -2 -5
17 -11 24 -7 36 -6 38 1 3 8 9 8 23 1 15 -8 19 -7 19 5 0 8 5 15 10 15 6 0 10
5 10 10 0 6 -11 10 -25 10 -14 0 -29 8 -35 20 -6 11 -15 18 -20 15 -5 -3 -11
-1 -14 4 -4 5 -2 12 4 16 12 8 13 25 1 25 -5 0 -12 -12 -15 -26z"/>
<path d="M5080 7040 c0 -5 5 -10 10 -10 6 0 10 5 10 10 0 6 -4 10 -10 10 -5 0
-10 -4 -10 -10z"/>
<path d="M5300 7022 c-25 -12 -35 -13 -38 -4 -4 14 -38 16 -47 2 -3 -5 -17
-10 -31 -10 -13 0 -24 -4 -24 -10 0 -14 -47 -12 -54 3 -5 9 -7 9 -12 -1 -4 -9
-9 -10 -19 -2 -7 6 -42 12 -77 13 -57 2 -63 0 -63 -18 0 -17 6 -20 39 -17 21
2 44 -2 51 -8 11 -9 12 -7 8 12 l-6 23 22 -22 c12 -13 27 -23 34 -23 7 0 6 4
-3 10 -13 8 -13 10 2 10 9 0 20 -5 24 -11 8 -13 -16 -31 -33 -24 -8 2 -13 -4
-13 -15 0 -29 -29 -24 -36 5 -7 28 -14 27 -18 -2 -2 -10 2 -21 8 -26 7 -5 3
-14 -13 -27 -23 -20 -23 -21 -6 -40 10 -11 14 -20 9 -20 -5 0 -2 -5 6 -11 13
-9 12 -10 -2 -5 -24 7 -29 -5 -14 -35 11 -23 10 -25 -24 -36 l-35 -12 45 2
c37 2 47 6 57 27 l13 25 0 -28 c0 -15 -6 -30 -14 -33 -9 -3 -12 -17 -10 -42 3
-29 2 -33 -7 -19 -5 9 -17 17 -24 17 -18 0 -19 12 -3 28 9 9 9 12 -3 12 -8 0
-20 -5 -27 -12 -9 -9 -15 -9 -24 0 -17 17 -24 15 -24 -6 0 -14 7 -17 27 -14
23 3 27 0 27 -21 0 -21 -5 -25 -29 -23 -36 3 -36 -3 0 -31 l28 -22 12 25 c6
14 16 22 22 19 7 -5 6 -11 -2 -21 -9 -11 -7 -14 10 -14 11 0 21 5 21 10 0 6 6
10 14 10 22 0 26 12 17 53 -8 31 -6 37 10 42 10 4 23 3 29 0 5 -3 10 3 10 14
0 12 4 21 10 21 5 0 7 -13 4 -29 -5 -24 -3 -29 12 -28 24 2 34 16 34 46 0 23
1 23 19 7 15 -13 20 -14 24 -4 4 10 10 8 22 -7 9 -12 11 -21 5 -23 -15 -5 -12
-19 4 -25 10 -4 13 -1 10 8 -3 7 4 18 15 24 11 6 18 17 15 25 -6 17 12 31 21
16 3 -5 13 -10 22 -10 13 0 13 3 3 15 -7 8 -9 15 -5 15 4 0 2 7 -5 15 -7 8 -9
15 -4 15 5 0 18 -14 29 -30 11 -16 23 -30 28 -30 4 0 7 -7 7 -15 0 -17 9 -19
28 -6 11 7 10 9 -3 15 -9 3 -13 11 -10 16 4 7 12 7 18 2 7 -4 19 -8 27 -7 8 0
18 -9 21 -20 4 -13 13 -19 27 -18 15 2 22 -3 22 -15 0 -10 3 -13 8 -6 11 15
74 12 80 -5 3 -10 -1 -12 -16 -9 -18 5 -19 3 -10 -23 9 -28 28 -40 28 -19 0
14 19 12 35 -4 17 -16 10 -27 -13 -20 -14 5 -14 4 1 -6 24 -15 39 -3 35 28 -4
35 19 40 34 6 10 -22 10 -28 0 -32 -17 -5 -15 -22 4 -22 8 0 22 -7 30 -15 9
-8 24 -15 35 -15 12 0 19 -7 19 -19 0 -12 9 -20 25 -23 31 -6 54 16 29 30 -13
7 -14 13 -5 30 10 19 9 21 -6 15 -16 -6 -16 -5 -4 10 14 18 5 22 -18 8 -8 -5
-11 -16 -7 -26 5 -15 2 -16 -21 -10 -36 9 -39 13 -25 27 16 16 15 45 0 52 -9
3 -7 8 6 17 15 9 16 13 5 20 -19 12 -32 11 -24 -1 3 -5 1 -10 -5 -10 -6 0 -15
11 -20 25 -5 14 -16 25 -25 25 -8 0 -15 5 -15 11 0 5 -4 8 -8 5 -5 -3 -17 4
-26 16 -17 19 -17 22 -2 30 9 5 16 12 16 16 0 13 -51 6 -60 -9 -12 -19 -20 -8
-14 18 3 12 14 23 24 26 9 2 19 16 22 31 4 21 1 27 -16 32 -12 3 -30 18 -41
34 -11 16 -23 26 -28 23 -5 -3 -3 -9 4 -14 7 -4 10 -12 5 -16 -4 -4 -19 6 -32
22 -18 23 -24 26 -24 13 0 -21 -11 -23 -28 -6 -9 9 -15 9 -24 0 -18 -18 -28
-15 -28 9 0 12 -8 23 -20 26 -22 6 -25 13 -10 31 6 6 7 10 4 8 -3 -3 -16 -1
-28 4 -15 5 -33 3 -56 -8z m-50 -10 c0 -13 -12 -22 -22 -16 -10 6 -1 24 13 24
5 0 9 -4 9 -8z m-57 -32 c-15 -6 -21 -15 -17 -25 3 -8 1 -15 -5 -15 -6 0 -11
11 -11 25 0 21 5 25 28 24 26 0 26 -1 5 -9z m97 -40 c0 -5 -2 -10 -4 -10 -3 0
-8 5 -11 10 -3 6 -1 10 4 10 6 0 11 -4 11 -10z m106 -17 c-10 -10 -19 5 -10
18 6 11 8 11 12 0 2 -7 1 -15 -2 -18z m55 -10 c-12 -20 -14 -14 -5 12 4 9 9
14 11 11 3 -2 0 -13 -6 -23z m63 11 c4 -9 4 -19 1 -22 -3 -3 -5 0 -5 7 0 8 -7
11 -15 7 -15 -5 -20 5 -8 17 11 11 21 8 27 -9z m-194 2 c0 -3 -4 -8 -10 -11
-5 -3 -10 -1 -10 4 0 6 5 11 10 11 6 0 10 -2 10 -4z m110 -11 c0 -8 -4 -15
-10 -15 -5 0 -10 7 -10 15 0 8 5 15 10 15 6 0 10 -7 10 -15z m-170 -10 c-7 -9
-15 -13 -17 -11 -7 7 7 26 19 26 6 0 6 -6 -2 -15z m294 -10 c-4 -8 -10 -15
-15 -15 -5 0 -9 7 -9 15 0 8 7 15 15 15 9 0 12 -6 9 -15z m-389 -5 c3 -5 1
-19 -5 -30 -6 -12 -7 -20 -1 -20 12 0 24 37 16 50 -3 5 -1 10 5 10 6 0 14 -8
17 -17 4 -10 10 -21 15 -24 11 -7 -1 -41 -12 -34 -4 3 -10 -1 -13 -9 -3 -7
-15 -16 -26 -19 -16 -4 -21 0 -21 14 0 10 -5 19 -10 19 -6 0 -9 10 -8 23 6 40
29 60 43 37z m-99 -12 c4 -6 2 -14 -4 -16 -7 -2 -12 -10 -12 -17 0 -7 -7 -16
-16 -19 -14 -5 -15 -4 -5 8 7 8 10 20 6 26 -7 11 2 30 15 30 5 0 12 -5 16 -12z
m387 -25 c-15 -23 -18 -24 -21 -9 -2 10 2 22 10 27 24 16 29 9 11 -18z m141
12 c3 -8 1 -15 -4 -15 -6 0 -10 7 -10 15 0 8 2 15 4 15 2 0 6 -7 10 -15z m-44
-25 c0 -5 -4 -10 -9 -10 -6 0 -13 5 -16 10 -3 6 1 10 9 10 9 0 16 -4 16 -10z
m-140 -4 c0 -15 -14 -35 -21 -30 -15 9 -10 34 6 34 8 0 15 -2 15 -4z m-335
-33 c-11 -3 -23 -10 -27 -17 -5 -7 -8 -7 -8 0 0 16 11 24 34 23 20 -1 20 -1 1
-6z m92 -29 c-3 -3 -12 -4 -19 -1 -8 3 -5 6 6 6 11 1 17 -2 13 -5z m53 -16 c0
-13 -23 -5 -28 10 -2 7 2 10 12 6 9 -3 16 -11 16 -16z m310 -29 c0 -6 -4 -7
-10 -4 -5 3 -10 11 -10 16 0 6 5 7 10 4 6 -3 10 -11 10 -16z m-370 -3 c0 -3
-4 -8 -10 -11 -5 -3 -10 -1 -10 4 0 6 5 11 10 11 6 0 10 -2 10 -4z m506 -20
c20 -21 17 -28 -6 -14 -11 7 -20 16 -20 20 0 12 10 9 26 -6z"/>
<path d="M4750 6970 c0 -5 -3 -9 -7 -9 -5 1 -28 1 -52 0 l-43 -1 23 -19 c28
-23 20 -38 -10 -21 -12 6 -20 7 -19 3 1 -4 -3 -18 -10 -30 -8 -15 -9 -23 -2
-23 12 0 50 -37 50 -49 0 -5 -7 -14 -15 -21 -16 -13 -19 -6 -15 35 1 16 -1 17
-11 8 -9 -9 -9 -18 1 -42 13 -32 4 -64 -11 -40 -6 9 -9 10 -9 2 0 -23 12 -43
23 -36 6 3 7 1 3 -5 -4 -6 1 -26 9 -43 17 -32 14 -99 -4 -99 -5 0 -11 -9 -14
-20 -3 -11 0 -18 7 -17 6 1 12 -13 14 -30 2 -18 -1 -33 -6 -33 -14 0 -22 -38
-8 -44 12 -5 -18 -9 -46 -7 -12 2 -15 -4 -11 -19 7 -25 -1 -25 -27 -3 -24 21
-26 33 -5 33 8 0 15 5 15 10 0 6 -4 10 -10 10 -23 0 -8 16 18 18 76 7 82 12
48 49 -30 32 -33 48 -11 57 8 3 15 16 15 30 0 14 4 27 9 31 15 8 -8 65 -26 65
-9 0 -13 6 -9 15 8 21 -12 19 -25 -4 -7 -11 -19 -16 -31 -13 -10 2 -18 0 -18
-6 0 -16 61 -27 70 -13 5 9 10 8 19 -2 21 -27 -1 -66 -26 -45 -7 5 -19 8 -27
5 -11 -4 -13 -1 -9 11 3 9 3 14 -2 10 -4 -4 -14 -3 -22 3 -10 9 -18 8 -32 -5
-10 -9 -25 -14 -34 -11 -8 4 -18 2 -22 -4 -3 -6 -1 -11 6 -11 7 0 9 -8 6 -21
-4 -16 -2 -19 11 -13 34 15 96 5 78 -13 -3 -4 -12 -1 -18 5 -9 9 -16 8 -30 -5
-10 -9 -18 -21 -18 -27 0 -6 5 -5 12 2 16 16 36 15 54 -3 9 -8 12 -15 8 -15
-4 0 1 -7 12 -15 18 -14 17 -14 -15 -15 -25 0 -32 3 -27 15 7 18 -20 21 -28 3
-3 -9 -8 -8 -16 6 -12 17 -13 17 -24 -2 -6 -11 -17 -29 -24 -41 -7 -11 -9 -21
-4 -21 5 0 14 12 21 26 8 19 16 24 29 19 9 -4 29 -11 43 -17 24 -8 25 -12 15
-33 -10 -23 -16 -25 -68 -22 -32 1 -58 6 -58 11 0 5 -2 7 -5 4 -3 -3 -1 -16 4
-29 5 -13 10 -18 10 -11 1 14 11 15 45 3 22 -9 23 -13 13 -35 -6 -13 -15 -23
-18 -20 -4 2 -19 -8 -33 -21 -25 -23 -29 -24 -43 -9 -15 15 -15 18 8 35 l24
20 -30 -2 c-16 0 -39 -1 -49 0 -20 1 -20 1 0 15 10 8 16 17 13 20 -7 7 -59
-39 -59 -52 0 -5 11 -8 25 -7 28 4 35 -19 9 -29 -8 -3 -13 -10 -10 -14 3 -5
-1 -18 -9 -28 -8 -10 -15 -27 -15 -37 0 -15 -2 -16 -13 -5 -14 14 -18 58 -5
58 4 0 8 8 8 18 0 12 -9 18 -27 20 -16 1 -23 -2 -16 -6 17 -11 11 -61 -9 -68
-15 -4 -16 -9 -5 -27 7 -12 20 -29 30 -39 15 -13 16 -21 8 -35 -10 -17 -10
-17 -11 0 0 9 -4 17 -9 17 -13 0 -22 -43 -11 -54 7 -7 10 -6 10 1 0 6 11 8 25
5 29 -5 34 -22 6 -22 -10 0 -21 -6 -24 -13 -7 -19 8 -41 22 -33 18 12 13 2
-11 -18 -18 -15 -20 -16 -15 -2 4 9 1 16 -4 16 -6 0 -9 9 -6 19 3 12 -1 22
-11 26 -21 8 -24 2 -24 -45 1 -33 -2 -40 -19 -40 -11 0 -17 5 -14 10 3 6 -1
10 -9 10 -9 0 -16 -7 -16 -15 0 -8 -4 -15 -10 -15 -5 0 -10 9 -10 20 0 11 3
20 8 20 4 0 8 11 8 25 1 14 -1 25 -5 25 -13 0 -29 -39 -24 -59 4 -16 -1 -23
-20 -30 -37 -14 -42 -30 -11 -41 21 -8 24 -14 16 -22 -9 -9 -15 -9 -24 0 -18
18 -28 15 -28 -9 0 -12 8 -23 19 -26 12 -3 23 -17 26 -35 7 -31 -1 -52 -10
-24 -15 48 -18 52 -23 26 -2 -14 -8 -30 -13 -37 -7 -7 -6 -14 1 -18 5 -3 10
-2 10 4 0 6 7 8 15 5 21 -8 19 -43 -2 -50 -47 -16 -71 -29 -67 -36 3 -4 -5 -9
-18 -9 -17 -1 -18 -3 -5 -6 9 -2 15 -8 12 -13 -3 -5 -11 -7 -19 -4 -9 3 -11
-3 -8 -25 2 -17 8 -28 14 -25 16 10 38 -16 28 -35 -13 -26 3 -46 27 -32 25 13
29 66 5 56 -12 -4 -12 -2 -4 8 7 8 9 17 6 20 -4 3 11 4 32 2 35 -5 41 -2 62
28 12 18 22 37 22 41 0 4 -10 4 -22 0 -23 -7 -23 -7 -4 15 11 12 22 17 25 13
3 -5 15 -6 26 -1 11 4 14 8 7 8 -23 2 -24 30 -2 58 12 15 27 29 33 29 7 1 20
2 30 3 10 0 21 9 24 19 4 9 10 19 13 22 12 9 23 53 12 46 -12 -7 -42 3 -42 14
0 4 12 16 27 25 25 17 27 17 41 -1 13 -17 14 -17 9 -1 -8 21 8 53 45 87 24 23
25 27 11 45 -15 20 -15 20 -10 -3 4 -15 1 -22 -6 -19 -7 2 -12 12 -13 23 -1
34 -14 74 -25 74 -6 0 -8 9 -4 23 5 17 4 18 -4 7 -5 -8 -13 -11 -17 -7 -9 9
16 38 27 31 5 -3 6 2 3 10 -4 10 -1 16 7 16 11 0 11 3 -1 10 -13 8 -12 10 3
10 10 0 21 -10 26 -22 5 -13 12 -21 16 -18 4 3 12 -5 16 -18 7 -19 4 -25 -16
-34 -30 -14 -33 -32 -4 -25 19 5 21 2 15 -23 -3 -17 -1 -32 6 -36 6 -4 8 -3 4
4 -3 6 -2 13 4 17 5 3 10 15 10 25 0 10 9 22 20 25 11 3 20 10 20 15 0 5 -7 7
-15 4 -8 -4 -15 -1 -15 5 0 6 9 11 20 11 26 0 25 21 -2 45 -15 12 -18 20 -10
23 7 2 24 -8 38 -23 26 -28 47 -28 24 0 -17 20 -5 32 15 15 11 -9 15 -9 15 -1
0 6 -10 16 -22 21 -14 5 -17 9 -8 9 9 1 21 -4 28 -11 14 -14 45 9 38 29 -4 9
7 15 35 19 27 5 38 11 35 20 -3 7 2 14 11 16 17 3 21 23 24 131 2 59 5 63 27
48 9 -6 11 -19 7 -44 l-7 -36 41 2 c22 1 43 7 45 14 3 7 12 13 21 13 10 0 15
10 15 29 0 17 5 33 10 36 13 8 13 35 1 35 -5 0 -11 -10 -13 -22 -2 -12 -9 -24
-17 -26 -10 -3 -12 0 -8 11 4 11 2 14 -9 10 -7 -3 -14 0 -14 7 0 9 -7 7 -25
-4 -34 -22 -45 -20 -45 8 0 14 -4 28 -10 31 -6 4 -3 16 6 31 17 24 13 39 -9
39 -7 0 -13 11 -15 25 -2 19 4 28 27 38 l30 13 -20 20 c-20 20 -20 22 -4 39
10 11 15 26 11 35 -6 18 13 44 29 38 16 -5 38 14 31 26 -9 14 -26 14 -26 1z
m-70 -270 c0 -5 -4 -10 -10 -10 -5 0 -10 5 -10 10 0 6 5 10 10 10 6 0 10 -4
10 -10z m-90 -116 c0 -8 -5 -12 -10 -9 -6 4 -8 11 -5 16 9 14 15 11 15 -7z
m24 -75 c-3 -5 -10 -7 -15 -3 -5 3 -7 10 -3 15 3 5 10 7 15 3 5 -3 7 -10 3
-15z m-62 -124 c6 -27 1 -30 -21 -16 -8 5 -11 16 -8 25 9 24 24 19 29 -9z
m-242 -155 c0 -5 -7 -10 -16 -10 -8 0 -12 5 -9 10 3 6 10 10 16 10 5 0 9 -4 9
-10z m28 -40 c11 -17 10 -20 -7 -20 -11 0 -26 -3 -35 -6 -22 -8 -20 15 2 32
23 18 25 17 40 -6z m7 -60 c3 -5 2 -10 -4 -10 -5 0 -13 5 -16 10 -3 6 -2 10 4
10 5 0 13 -4 16 -10z m-12 -16 c9 -10 -4 -34 -19 -34 -8 0 -14 6 -14 13 0 22
19 35 33 21z m-125 -110 c57 -28 46 -49 -15 -32 -31 8 -42 26 -26 41 8 9 5 10
41 -9z m-7 -61 c13 -15 12 -15 -8 -4 -24 12 -29 21 -14 21 5 0 15 -7 22 -17z
m59 -23 c0 -5 -7 -10 -16 -10 -8 0 -12 5 -9 10 3 6 10 10 16 10 5 0 9 -4 9
-10z m-100 -20 c0 -5 -7 -10 -15 -10 -8 0 -15 5 -15 10 0 6 7 10 15 10 8 0 15
-4 15 -10z m-77 -146 c-3 -8 -9 -12 -13 -9 -5 3 -13 -2 -18 -12 -9 -14 -13
-15 -26 -4 -14 11 -16 11 -16 -4 0 -10 -3 -16 -6 -12 -3 3 -3 15 1 27 5 15 12
19 27 14 11 -3 18 -2 15 2 -3 5 5 10 18 10 16 1 22 -3 18 -12z"/>
<path d="M4932 6894 l-12 -25 -27 21 c-15 12 -29 17 -31 12 -1 -5 -17 -8 -33
-6 -17 2 -39 -2 -49 -9 -15 -11 -16 -15 -5 -30 12 -17 14 -17 30 0 17 16 85
27 85 14 0 -4 -7 -17 -16 -30 -14 -19 -14 -25 -3 -32 11 -6 11 -11 1 -21 -9
-9 -12 -9 -12 0 0 7 -7 12 -15 12 -9 0 -15 9 -15 25 0 31 -5 31 -41 1 -15 -13
-34 -26 -40 -28 -7 -2 -9 -10 -5 -16 9 -15 36 -16 36 -2 0 6 9 10 21 10 15 0
19 -4 15 -16 -5 -14 -4 -15 9 -4 25 21 42 -3 25 -35 -8 -16 -16 -21 -20 -14
-5 7 -9 5 -13 -5 -4 -9 -13 -13 -22 -10 -21 9 -19 21 6 29 17 6 19 9 8 16 -9
6 -18 3 -25 -6 -7 -10 -19 -13 -30 -8 -19 6 -19 6 -1 -15 12 -12 16 -26 11
-34 -6 -10 -5 -10 9 0 19 16 37 8 38 -16 0 -10 3 -12 5 -5 3 7 11 10 19 7 14
-6 39 29 28 39 -3 4 0 13 6 21 7 8 10 20 7 25 -4 5 -1 13 5 17 8 4 9 3 5 -4
-5 -8 -2 -10 9 -6 10 4 12 10 6 18 -4 6 -11 20 -15 31 -4 16 -1 21 13 21 13 0
17 -6 13 -20 -4 -14 -2 -17 9 -10 8 5 22 7 33 5 25 -4 38 19 20 36 -16 17 -18
33 -4 33 16 0 11 27 -6 34 -21 8 -19 9 -32 -20z"/>
<path d="M5648 6868 c3 -21 0 -28 -12 -28 -9 0 -16 -4 -16 -10 0 -5 10 -10 23
-10 12 0 31 -2 42 -4 11 -2 14 -1 8 1 -18 6 -16 13 4 29 13 9 22 9 30 2 16
-13 16 2 0 23 -7 9 -28 18 -48 20 -33 4 -35 3 -31 -23z"/>
<path d="M5755 6840 c4 -6 11 -8 17 -4 5 4 8 -3 6 -16 -2 -13 3 -25 10 -27 16
-6 16 29 0 45 -15 15 -42 16 -33 2z"/>
<path d="M5815 6800 c3 -5 11 -10 16 -10 6 0 7 5 4 10 -3 6 -11 10 -16 10 -6
0 -7 -4 -4 -10z"/>
<path d="M4680 6766 c0 -9 5 -16 10 -16 6 0 10 4 10 9 0 6 -4 13 -10 16 -5 3
-10 -1 -10 -9z"/>
<path d="M4937 6773 c-4 -6 0 -16 8 -23 21 -17 28 -8 11 15 -8 11 -15 14 -19
8z"/>
<path d="M5650 6760 c0 -5 4 -10 9 -10 6 0 13 5 16 10 3 6 -1 10 -9 10 -9 0
-16 -4 -16 -10z"/>
<path d="M5287 6702 c-10 -2 -17 -11 -15 -20 5 -25 25 -25 31 0 7 26 7 26 -16
20z"/>
<path d="M5390 6686 c0 -2 7 -6 15 -10 8 -3 15 -1 15 4 0 6 -7 10 -15 10 -8 0
-15 -2 -15 -4z"/>
<path d="M5480 6666 c0 -9 5 -16 10 -16 6 0 10 4 10 9 0 6 -4 13 -10 16 -5 3
-10 -1 -10 -9z"/>
<path d="M4728 6663 c6 -2 9 -10 6 -15 -4 -7 -2 -8 4 -4 18 11 14 26 -5 25
-11 0 -13 -3 -5 -6z"/>
<path d="M5090 6645 c-9 -11 -10 -15 -1 -15 7 0 19 7 27 15 13 13 13 15 1 15
-8 0 -20 -7 -27 -15z"/>
<path d="M5430 6650 c0 -5 7 -7 15 -4 8 4 15 8 15 10 0 2 -7 4 -15 4 -8 0 -15
-4 -15 -10z"/>
<path d="M5530 6639 c0 -5 5 -7 10 -4 6 3 10 8 10 11 0 2 -4 4 -10 4 -5 0 -10
-5 -10 -11z"/>
<path d="M4402 6602 c-17 -37 0 -47 20 -12 12 21 13 30 4 33 -6 3 -17 -7 -24
-21z"/>
<path d="M5853 6605 c-8 -22 6 -33 17 -15 13 20 12 30 0 30 -6 0 -13 -7 -17
-15z"/>
<path d="M4875 6597 c27 -18 55 -28 55 -19 0 8 -48 32 -64 32 -6 0 -2 -6 9
-13z"/>
<path d="M4845 6560 c3 -5 10 -10 16 -10 5 0 9 5 9 10 0 6 -7 10 -16 10 -8 0
-12 -4 -9 -10z"/>
<path d="M5876 6555 c-3 -8 -1 -15 4 -15 6 0 10 7 10 15 0 8 -2 15 -4 15 -2 0
-6 -7 -10 -15z"/>
<path d="M4370 6547 c0 -9 -5 -17 -11 -17 -5 0 -7 -5 -3 -11 4 -7 11 -6 22 5
13 12 14 19 4 28 -9 9 -12 8 -12 -5z"/>
<path d="M5640 6543 c0 -5 4 -14 9 -21 6 -10 10 -9 14 7 3 14 0 21 -9 21 -8 0
-14 -3 -14 -7z"/>
<path d="M5920 6540 c0 -5 7 -10 15 -10 8 0 15 5 15 10 0 6 -7 10 -15 10 -8 0
-15 -4 -15 -10z"/>
<path d="M4404 6516 c-6 -7 -15 -23 -19 -37 -5 -18 -2 -16 15 10 22 34 24 48
4 27z"/>
<path d="M4790 6515 c-7 -9 -11 -18 -8 -20 3 -3 11 1 18 10 7 9 11 18 8 20 -3
3 -11 -1 -18 -10z"/>
<path d="M4310 6510 c0 -5 5 -10 10 -10 6 0 10 5 10 10 0 6 -4 10 -10 10 -5 0
-10 -4 -10 -10z"/>
<path d="M4740 6499 c0 -5 5 -7 10 -4 6 3 10 8 10 11 0 2 -4 4 -10 4 -5 0 -10
-5 -10 -11z"/>
<path d="M4490 6496 c0 -2 7 -6 15 -10 8 -3 15 -1 15 4 0 6 -7 10 -15 10 -8 0
-15 -2 -15 -4z"/>
<path d="M5820 6475 c0 -8 7 -15 15 -15 9 0 12 6 9 15 -4 8 -10 15 -15 15 -5
0 -9 -7 -9 -15z"/>
<path d="M5730 6469 c0 -5 5 -7 10 -4 6 3 10 8 10 11 0 2 -4 4 -10 4 -5 0 -10
-5 -10 -11z"/>
<path d="M5620 6456 c0 -2 7 -6 15 -10 8 -3 15 -1 15 4 0 6 -7 10 -15 10 -8 0
-15 -2 -15 -4z"/>
<path d="M6120 6450 c0 -5 5 -10 11 -10 5 0 7 5 4 10 -3 6 -8 10 -11 10 -2 0
-4 -4 -4 -10z"/>
<path d="M5800 6424 c0 -3 9 -26 21 -51 20 -45 20 -47 3 -60 -10 -7 -16 -14
-13 -14 32 -9 59 -6 59 6 0 13 29 35 44 35 3 0 6 -11 6 -25 0 -20 5 -25 25
-25 14 0 25 5 25 10 0 6 -6 10 -13 10 -7 0 -18 9 -25 20 -9 15 -19 18 -43 13
-31 -6 -32 -5 -25 22 6 23 4 26 -9 21 -10 -4 -19 3 -27 19 -10 22 -28 35 -28
19z"/>
<path d="M5775 6360 c-3 -5 1 -10 10 -10 9 0 13 5 10 10 -3 6 -8 10 -10 10 -2
0 -7 -4 -10 -10z"/>
<path d="M2705 6349 c-5 -7 -4 -14 3 -17 7 -2 9 -9 6 -15 -5 -9 -4 -9 6 0 8 7
9 16 2 28 -7 14 -11 15 -17 4z"/>
<path d="M5695 6340 c4 -6 11 -8 16 -5 14 9 11 15 -7 15 -8 0 -12 -5 -9 -10z"/>
<path d="M6355 6330 c3 -5 8 -10 11 -10 2 0 4 5 4 10 0 6 -5 10 -11 10 -5 0
-7 -4 -4 -10z"/>
<path d="M5500 6322 c0 -5 7 -13 16 -16 10 -4 14 -1 12 6 -5 15 -28 23 -28 10z"/>
<path d="M5570 6320 c0 -5 5 -10 10 -10 6 0 10 5 10 10 0 6 -4 10 -10 10 -5 0
-10 -4 -10 -10z"/>
<path d="M6016 6305 c-3 -8 -1 -15 4 -15 6 0 10 7 10 15 0 8 -2 15 -4 15 -2 0
-6 -7 -10 -15z"/>
<path d="M4196 6293 c-6 -14 -5 -15 5 -6 7 7 10 15 7 18 -3 3 -9 -2 -12 -12z"/>
<path d="M5770 6300 c0 -5 5 -10 11 -10 5 0 7 5 4 10 -3 6 -8 10 -11 10 -2 0
-4 -4 -4 -10z"/>
<path d="M6105 6280 c3 -5 8 -10 11 -10 2 0 4 5 4 10 0 6 -5 10 -11 10 -5 0
-7 -4 -4 -10z"/>
<path d="M4360 6260 c0 -5 5 -10 10 -10 6 0 10 5 10 10 0 6 -4 10 -10 10 -5 0
-10 -4 -10 -10z"/>
<path d="M6230 6252 c0 -4 10 -9 22 -9 18 -2 20 0 8 7 -18 12 -30 13 -30 2z"/>
<path d="M6315 6250 c-3 -5 -1 -10 4 -10 6 0 11 5 11 10 0 6 -2 10 -4 10 -3 0
-8 -4 -11 -10z"/>
<path d="M6340 6243 c0 -5 12 -19 25 -32 19 -18 25 -20 25 -7 0 10 5 13 17 9
11 -4 14 -3 9 5 -4 7 -16 12 -26 12 -10 0 -22 5 -25 10 -7 12 -25 13 -25 3z"/>
<path d="M6018 6233 c7 -3 16 -2 19 1 4 3 -2 6 -13 5 -11 0 -14 -3 -6 -6z"/>
<path d="M6230 6203 c0 -10 5 -25 10 -33 7 -12 12 -12 22 -2 14 14 32 16 23 2
-3 -5 -2 -10 4 -10 5 0 12 4 15 9 9 15 -25 22 -41 9 -13 -10 -14 -8 -11 12 1
13 -3 25 -9 27 -8 3 -13 -3 -13 -14z"/>
<path d="M5880 6195 c0 -8 4 -15 8 -15 5 0 9 7 9 15 0 8 -4 15 -9 15 -4 0 -8
-7 -8 -15z"/>
<path d="M6009 6183 c-13 -16 -12 -17 4 -4 16 13 21 21 13 21 -2 0 -10 -8 -17
-17z"/>
<path d="M6116 6185 c-9 -9 -13 -22 -9 -28 4 -7 8 -6 11 3 3 8 10 18 16 22 6
4 8 10 4 13 -3 3 -13 -1 -22 -10z"/>
<path d="M6163 6181 c2 -10 0 -26 -5 -35 -8 -14 -6 -15 16 -4 30 13 30 16 12
41 -17 22 -30 22 -23 -2z"/>
<path d="M6071 6181 c-8 -6 -9 -11 -3 -15 6 -3 14 -1 17 5 9 14 2 20 -14 10z"/>
<path d="M4156 6138 c-4 -22 -4 -43 -1 -46 7 -8 13 0 17 23 1 11 7 23 12 27 5
3 2 13 -6 22 -14 14 -16 11 -22 -26z"/>
<path d="M5875 6160 c-3 -5 -1 -10 4 -10 6 0 11 5 11 10 0 6 -2 10 -4 10 -3 0
-8 -4 -11 -10z"/>
<path d="M5927 6125 c-13 -9 -14 -14 -5 -18 14 -5 42 19 30 27 -4 2 -15 -2
-25 -9z"/>
<path d="M6368 6105 c2 -15 0 -25 -7 -25 -6 0 -11 -9 -11 -20 0 -11 -7 -23
-15 -26 -20 -8 -19 -21 3 -21 20 0 42 26 35 42 -2 7 5 16 17 21 19 8 19 11 5
32 -21 29 -33 28 -27 -3z"/>
<path d="M2934 6089 c-3 -6 -1 -16 5 -22 8 -8 11 -5 11 11 0 24 -5 28 -16 11z"/>
<path d="M6318 6093 c6 -2 18 -2 25 0 6 3 1 5 -13 5 -14 0 -19 -2 -12 -5z"/>
<path d="M6060 6049 c0 -5 5 -7 10 -4 6 3 10 8 10 11 0 2 -4 4 -10 4 -5 0 -10
-5 -10 -11z"/>
<path d="M3276 6022 c-3 -6 1 -13 10 -16 23 -9 28 -2 10 13 -8 7 -17 8 -20 3z"/>
<path d="M6260 6021 c0 -6 5 -13 12 -17 6 -4 8 -3 4 4 -3 6 2 13 11 15 14 4
13 5 -4 6 -13 0 -23 -3 -23 -8z"/>
<path d="M6038 6013 c7 -3 16 -2 19 1 4 3 -2 6 -13 5 -11 0 -14 -3 -6 -6z"/>
<path d="M5490 5990 c0 -5 5 -10 10 -10 6 0 10 5 10 10 0 6 -4 10 -10 10 -5 0
-10 -4 -10 -10z"/>
<path d="M6288 5968 c-7 -61 7 -77 72 -83 8 -1 21 -3 28 -4 6 0 12 -6 12 -12
0 -6 -7 -8 -16 -5 -10 4 -14 1 -12 -6 3 -7 17 -13 32 -13 30 -1 72 -37 62 -54
-13 -20 -43 -12 -55 15 -9 20 -14 24 -25 15 -7 -6 -21 -9 -29 -5 -13 5 -16 0
-14 -25 1 -17 5 -31 10 -31 12 0 8 -18 -9 -34 -8 -9 -11 -16 -6 -16 11 0 42
33 42 46 0 5 10 11 22 11 15 2 18 -1 10 -6 -17 -10 4 -61 25 -61 7 0 13 -4 13
-10 0 -12 -3 -12 -33 -1 -19 7 -26 5 -36 -11 -9 -15 -9 -23 0 -34 12 -14 7
-18 -23 -15 -24 3 -23 -1 9 -58 2 -2 9 1 17 8 11 9 15 6 19 -14 3 -19 1 -25
-8 -21 -7 2 -15 -4 -18 -14 -3 -11 1 -21 10 -24 23 -9 34 -7 32 7 -3 17 22 67
34 67 5 0 22 -9 38 -21 36 -25 38 -7 4 26 -18 16 -22 24 -13 27 26 9 48 -4 49
-31 1 -18 3 -21 6 -8 3 13 11 17 24 14 10 -3 19 -1 19 3 0 5 3 15 6 23 4 11
-2 17 -23 20 l-28 4 30 2 c22 1 26 4 16 10 -12 8 -12 12 -2 25 11 14 11 16 -4
16 -9 0 -19 -9 -22 -20 -3 -11 -9 -20 -14 -20 -5 0 -9 -7 -9 -16 0 -8 -4 -13
-8 -10 -10 6 -2 86 9 86 19 0 8 36 -13 45 -13 6 -21 17 -20 25 2 8 6 31 8 51
4 30 1 37 -16 42 -17 4 -18 2 -9 -14 12 -23 3 -25 -18 -4 -9 9 -23 13 -34 10
-23 -8 -24 -2 -2 32 l17 26 -39 -8 c-74 -15 -97 -7 -77 25 16 26 15 33 -3 26
-9 -3 -15 0 -15 10 0 10 6 14 15 11 8 -4 17 -2 20 3 4 6 -7 10 -23 10 -26 0
-30 -4 -34 -32z m203 -254 c-5 -19 -10 -24 -15 -16 -4 7 -5 24 -2 38 4 14 2
24 -4 24 -6 0 -8 5 -5 11 13 20 35 -26 26 -57z m-31 -71 c0 -13 -3 -13 -15 -3
-8 7 -12 16 -9 21 8 13 24 1 24 -18z"/>
<path d="M6380 5995 c0 -19 26 -55 37 -51 7 3 13 1 13 -4 0 -5 9 -12 20 -15
11 -4 18 -11 15 -16 -4 -5 -1 -9 4 -9 16 0 13 20 -4 26 -8 4 -15 12 -15 19 0
8 -12 23 -26 34 -25 20 -44 27 -44 16z"/>
<path d="M3350 5966 c0 -8 5 -18 10 -21 6 -3 10 1 10 9 0 8 -4 18 -10 21 -5 3
-10 -1 -10 -9z"/>
<path d="M3302 5961 c4 -13 18 -16 19 -4 0 4 -5 9 -11 12 -7 2 -11 -2 -8 -8z"/>
<path d="M6235 5960 c-3 -5 -1 -10 5 -10 8 0 10 -9 6 -26 -6 -24 -5 -25 9 -11
19 19 19 25 1 43 -9 9 -17 10 -21 4z"/>
<path d="M3414 5953 c10 -11 36 -12 36 -2 0 5 -10 9 -22 9 -12 0 -18 -3 -14
-7z"/>
<path d="M6480 5951 c0 -5 7 -12 16 -15 14 -5 15 -4 4 9 -14 17 -20 19 -20 6z"/>
<path d="M5330 5935 c7 -8 17 -15 22 -15 5 0 3 7 -6 15 -8 8 -18 15 -22 15 -3
0 -1 -7 6 -15z"/>
<path d="M3355 5920 c-3 -5 3 -10 15 -10 12 0 18 5 15 10 -3 6 -10 10 -15 10
-5 0 -12 -4 -15 -10z"/>
<path d="M3400 5920 c0 -5 5 -10 11 -10 5 0 7 5 4 10 -3 6 -8 10 -11 10 -2 0
-4 -4 -4 -10z"/>
<path d="M6496 5901 c-3 -5 1 -11 9 -15 8 -3 15 -1 15 4 0 13 -18 22 -24 11z"/>
<path d="M3516 5864 c-11 -27 -7 -37 9 -24 16 14 20 40 6 40 -5 0 -12 -7 -15
-16z"/>
<path d="M4012 5860 c0 -14 2 -19 5 -12 2 6 2 18 0 25 -3 6 -5 1 -5 -13z"/>
<path d="M6526 5871 c-4 -5 -2 -12 3 -15 5 -4 12 -2 15 3 4 5 2 12 -3 15 -5 4
-12 2 -15 -3z"/>
<path d="M3615 5840 c-3 -5 -1 -10 4 -10 6 0 11 5 11 10 0 6 -2 10 -4 10 -3 0
-8 -4 -11 -10z"/>
<path d="M3338 5823 c7 -3 16 -2 19 1 4 3 -2 6 -13 5 -11 0 -14 -3 -6 -6z"/>
<path d="M3992 5821 c-11 -7 -11 -9 0 -13 18 -7 39 2 32 13 -6 11 -15 11 -32
0z"/>
<path d="M3490 5794 c0 -22 2 -25 15 -14 12 10 13 16 4 26 -16 20 -19 18 -19
-12z"/>
<path d="M3606 5795 c-3 -9 0 -15 9 -15 16 0 20 16 6 24 -5 3 -11 -1 -15 -9z"/>
<path d="M6555 5777 c-16 -13 -15 -14 13 -9 18 2 29 8 26 13 -7 12 -17 11 -39
-4z"/>
<path d="M6555 5730 c3 -5 8 -10 11 -10 2 0 4 5 4 10 0 6 -5 10 -11 10 -5 0
-7 -4 -4 -10z"/>
<path d="M3630 5723 c0 -4 4 -14 9 -22 6 -10 4 -25 -5 -43 -13 -25 -12 -28 5
-38 38 -20 70 16 49 54 -6 11 -6 22 1 30 9 10 8 15 -3 19 -9 4 -16 -1 -18 -10
-3 -15 -5 -15 -20 1 -10 10 -18 14 -18 9z"/>
<path d="M6290 5720 c-13 -8 -12 -11 5 -24 23 -18 35 -20 35 -6 0 6 -4 10 -9
10 -5 0 -11 7 -13 15 -2 10 -7 12 -18 5z"/>
<path d="M6625 5720 c3 -5 10 -10 16 -10 5 0 9 5 9 10 0 6 -7 10 -16 10 -8 0
-12 -4 -9 -10z"/>
<path d="M3506 5705 c-16 -12 -17 -15 -4 -15 9 0 18 7 22 15 7 18 6 18 -18 0z"/>
<path d="M3588 5703 c7 -3 16 -2 19 1 4 3 -2 6 -13 5 -11 0 -14 -3 -6 -6z"/>
<path d="M3405 5690 c3 -5 8 -10 11 -10 2 0 4 5 4 10 0 6 -5 10 -11 10 -5 0
-7 -4 -4 -10z"/>
<path d="M3475 5630 c-3 -5 0 -10 7 -10 7 0 2 -8 -11 -17 l-24 -16 21 -8 c13
-5 22 -17 22 -29 0 -26 12 -26 28 0 7 11 9 20 4 20 -4 0 -8 9 -8 20 0 11 4 20
9 20 5 0 4 7 -3 15 -14 17 -36 20 -45 5z"/>
<path d="M3725 5630 c-4 -6 2 -10 11 -10 14 0 15 -3 6 -12 -8 -8 -15 -8 -28 3
-15 12 -18 12 -22 0 -2 -7 -13 -22 -24 -33 -21 -21 -15 -46 8 -27 9 7 14 8 14
1 0 -6 -13 -19 -30 -29 -43 -25 -41 -45 2 -22 17 9 19 8 14 -8 -3 -10 -1 -25
4 -33 7 -11 10 -11 10 -2 0 7 5 10 10 7 6 -4 17 -1 25 5 17 14 35 5 35 -16 0
-11 -6 -13 -21 -9 -23 7 -39 -8 -39 -35 1 -12 3 -11 14 3 10 13 21 16 40 11
29 -7 29 -6 16 51 -6 28 -6 42 3 47 8 5 6 8 -5 8 -20 0 -24 15 -8 25 6 3 10 1
10 -6 0 -7 9 -3 20 9 26 27 26 46 0 39 -13 -3 -21 1 -25 13 -7 21 -32 33 -40
20z m12 -73 c-2 -7 -11 -13 -19 -15 -11 -2 -15 5 -15 22 0 22 2 24 19 15 11
-6 17 -16 15 -22z"/>
<path d="M6293 5605 c0 -9 4 -14 9 -13 5 2 10 8 10 13 0 5 -5 11 -10 13 -5 1
-9 -4 -9 -13z"/>
<path d="M6650 5610 c0 -5 5 -10 11 -10 5 0 7 5 4 10 -3 6 -8 10 -11 10 -2 0
-4 -4 -4 -10z"/>
<path d="M3530 5590 c0 -5 4 -10 9 -10 6 0 13 5 16 10 3 6 -1 10 -9 10 -9 0
-16 -4 -16 -10z"/>
<path d="M3584 5585 c-4 -8 -15 -15 -26 -15 -10 0 -16 -5 -13 -10 3 -6 17 -7
30 -4 12 3 26 1 29 -5 16 -25 23 -9 10 19 -17 34 -22 36 -30 15z"/>
<path d="M6663 5584 c3 -4 -4 -15 -16 -26 -18 -16 -19 -19 -4 -14 10 3 23 6
28 6 5 0 9 9 9 20 0 11 -5 20 -12 20 -6 0 -9 -3 -5 -6z"/>
<path d="M3423 5555 c-9 -24 1 -27 15 -5 8 13 8 20 2 20 -6 0 -13 -7 -17 -15z"/>
<path d="M3800 5550 c0 -5 5 -10 10 -10 6 0 10 5 10 10 0 6 -4 10 -10 10 -5 0
-10 -4 -10 -10z"/>
<path d="M6600 5536 c0 -9 5 -16 10 -16 6 0 10 4 10 9 0 6 -4 13 -10 16 -5 3
-10 -1 -10 -9z"/>
<path d="M6667 5536 c-10 -8 -15 -16 -10 -19 4 -3 19 3 32 14 26 22 6 26 -22
5z"/>
<path d="M3565 5510 c16 -17 16 -20 2 -20 -9 0 -18 -4 -21 -9 -3 -5 6 -8 19
-8 28 0 33 20 11 43 -22 22 -32 17 -11 -6z"/>
<path d="M3832 5519 c2 -7 10 -15 17 -17 8 -3 12 1 9 9 -2 7 -10 15 -17 17 -8
3 -12 -1 -9 -9z"/>
<path d="M6295 5510 c3 -5 10 -10 16 -10 5 0 9 5 9 10 0 6 -7 10 -16 10 -8 0
-12 -4 -9 -10z"/>
<path d="M6545 5510 c3 -5 8 -10 11 -10 2 0 4 5 4 10 0 6 -5 10 -11 10 -5 0
-7 -4 -4 -10z"/>
<path d="M6695 5510 c-11 -4 -30 -10 -42 -15 -26 -8 -29 -26 -10 -56 10 -17 9
-22 -11 -38 -21 -15 -22 -19 -8 -30 13 -11 17 -9 27 15 6 16 8 41 5 55 -8 41
11 51 52 27 26 -14 32 -15 23 -4 -7 8 -10 24 -6 36 7 21 2 23 -30 10z"/>
<path d="M3890 5500 c0 -5 5 -10 10 -10 6 0 10 5 10 10 0 6 -4 10 -10 10 -5 0
-10 -4 -10 -10z"/>
<path d="M6491 5499 c-13 -5 -22 -11 -20 -13 7 -7 59 6 59 15 0 11 -8 11 -39
-2z"/>
<path d="M6595 5500 c-3 -5 -1 -10 4 -10 6 0 11 5 11 10 0 6 -2 10 -4 10 -3 0
-8 -4 -11 -10z"/>
<path d="M6260 5480 c-22 -6 -23 -8 -7 -15 11 -4 23 -3 30 4 15 15 7 19 -23
11z"/>
<path d="M6545 5480 c-3 -5 -1 -10 4 -10 6 0 11 5 11 10 0 6 -2 10 -4 10 -3 0
-8 -4 -11 -10z"/>
<path d="M3643 5460 c1 -11 5 -20 9 -20 10 0 6 -44 -5 -51 -5 -4 -6 -12 -2
-18 5 -9 11 -9 23 1 12 10 14 10 8 1 -5 -9 -2 -11 8 -7 14 6 21 -5 17 -28 0
-5 8 -8 20 -8 15 0 19 -5 15 -15 -4 -11 3 -15 27 -16 18 -1 25 -3 16 -6 -10
-2 -19 -13 -22 -24 -4 -17 -3 -18 9 -8 11 9 17 9 29 -1 13 -11 15 -8 15 16 1
27 20 64 34 64 3 0 6 -7 6 -15 0 -25 20 -17 31 12 13 35 4 56 -20 48 -15 -5
-18 -1 -13 20 3 19 0 25 -13 25 -9 0 -19 -9 -22 -21 -4 -14 -12 -19 -24 -16
-12 3 -19 -2 -23 -19 -8 -29 -37 -31 -54 -4 -7 11 -19 20 -28 20 -13 0 -15 7
-11 30 4 19 1 34 -9 45 -20 20 -23 19 -21 -5z m139 -102 c-7 -7 -12 -8 -12 -2
0 14 12 26 19 19 2 -3 -1 -11 -7 -17z"/>
<path d="M3860 5471 c0 -5 11 -11 25 -13 28 -6 34 6 9 16 -22 8 -34 7 -34 -3z"/>
<path d="M3593 5463 c-22 -8 -14 -21 9 -15 14 3 19 2 14 -6 -4 -7 -2 -12 3
-12 13 0 13 3 5 24 -6 17 -11 18 -31 9z"/>
<path d="M6509 5453 c5 -10 12 -26 15 -36 3 -10 11 -15 17 -11 8 5 8 9 -1 14
-7 4 -9 13 -6 19 4 6 2 11 -4 11 -6 0 -8 5 -5 10 3 6 -1 10 -9 10 -12 0 -14
-4 -7 -17z"/>
<path d="M6393 5445 c-10 -10 -9 -14 2 -19 17 -6 31 12 19 24 -5 5 -14 2 -21
-5z"/>
<path d="M3934 5415 c-3 -8 -3 -19 1 -25 3 -5 1 -10 -4 -10 -6 0 -11 6 -12 13
0 6 -5 -1 -11 -16 -8 -24 -7 -32 7 -45 16 -15 17 -15 12 -1 -4 12 0 15 17 12
45 -9 58 49 14 60 -11 3 -17 10 -13 16 3 6 4 11 0 11 -3 0 -8 -7 -11 -15z m26
-55 c0 -5 -5 -10 -11 -10 -5 0 -7 5 -4 10 3 6 8 10 11 10 2 0 4 -4 4 -10z"/>
<path d="M6439 5414 c-6 -8 -15 -11 -20 -8 -5 3 -9 -2 -9 -11 0 -9 5 -13 10
-10 6 3 11 -1 11 -9 1 -9 3 -20 4 -26 1 -5 3 -18 4 -29 0 -10 10 -21 21 -24
11 -3 20 -10 20 -16 0 -15 -37 -14 -43 2 -4 10 -7 10 -18 0 -7 -7 -22 -13 -33
-13 -17 0 -18 -2 -6 -10 9 -6 18 -6 24 0 13 13 26 13 26 1 0 -5 -9 -13 -21
-16 -11 -4 -18 -9 -15 -12 3 -4 0 -13 -6 -21 -23 -27 -17 -49 27 -97 25 -26
43 -50 40 -53 -2 -3 -11 1 -19 7 -8 7 -27 11 -43 9 -21 -2 -29 -9 -31 -28 -2
-14 0 -21 5 -17 4 5 9 13 9 18 1 5 2 12 3 15 1 9 31 -16 31 -26 0 -4 -9 -10
-21 -13 -16 -4 -19 -11 -14 -26 4 -12 2 -21 -4 -21 -6 0 -11 -7 -11 -15 0 -9
9 -15 23 -14 16 1 17 3 5 6 -14 3 -15 8 -6 23 6 10 18 16 25 13 7 -3 13 0 13
6 0 6 6 10 13 9 6 -2 13 4 13 12 1 8 2 19 3 24 0 5 7 3 15 -3 10 -9 16 -8 26
4 16 19 31 20 24 1 -7 -18 44 -55 54 -39 4 6 16 13 27 15 11 2 19 9 18 15 -2
7 6 15 17 18 35 11 24 33 -15 29 -35 -2 -40 3 -37 45 1 18 -27 40 -49 41 -11
0 -15 8 -14 25 4 28 -15 34 -35 10 -10 -12 -10 -18 0 -30 6 -8 10 -20 7 -27
-4 -8 -8 -5 -13 10 -3 12 -11 22 -18 21 -6 -1 -19 -1 -29 0 -17 1 -17 2 0 26
10 13 26 25 35 25 9 0 19 4 23 10 3 5 12 7 20 3 8 -3 15 0 15 6 0 6 -6 11 -12
11 -9 0 -8 3 2 10 9 5 19 5 26 -1 9 -7 11 -1 9 27 -4 37 -15 61 -15 31 0 -9
-6 -17 -14 -17 -8 0 -17 -6 -19 -12 -4 -9 -6 -9 -6 1 -1 8 -8 22 -17 32 -9 10
-14 24 -11 31 4 8 8 5 12 -9 8 -24 20 -29 30 -13 3 6 15 10 26 10 10 0 19 5
19 11 0 5 -5 7 -11 4 -11 -7 -43 21 -51 45 -6 18 -35 21 -49 4z m16 -164 c3
-5 1 -10 -4 -10 -6 0 -11 5 -11 10 0 6 2 10 4 10 3 0 8 -4 11 -10z m-19 -105
c14 -13 13 -15 -5 -15 -12 0 -21 6 -21 15 0 8 3 15 6 15 3 0 12 -7 20 -15z
m70 -53 c-9 -9 -37 8 -31 18 5 8 11 7 21 -1 8 -6 12 -14 10 -17z m34 -14 c0
-19 -2 -20 -10 -8 -13 19 -13 30 0 30 6 0 10 -10 10 -22z m30 -33 c0 -8 -4
-15 -9 -15 -13 0 -22 16 -14 24 11 11 23 6 23 -9z"/>
<path d="M6686 5406 c3 -9 1 -16 -5 -16 -6 0 -11 -4 -11 -10 0 -5 7 -10 15
-10 17 0 21 35 5 45 -6 3 -7 -1 -4 -9z"/>
<path d="M3665 5340 c-3 -5 -1 -10 4 -10 6 0 11 5 11 10 0 6 -2 10 -4 10 -3 0
-8 -4 -11 -10z"/>
<path d="M6690 5316 c0 -22 3 -27 11 -19 8 8 8 16 0 30 -9 16 -10 14 -11 -11z"/>
<path d="M3913 5298 c-20 -19 -21 -24 -8 -48 15 -30 55 -47 55 -25 0 8 -8 12
-20 10 -11 -2 -20 0 -20 6 0 5 6 9 14 9 7 0 16 10 20 23 5 18 8 20 16 7 9 -13
14 -7 11 12 0 4 7 4 17 1 15 -6 15 -5 3 10 -19 24 -62 21 -88 -5z"/>
<path d="M3680 5290 c0 -13 18 -22 24 -11 3 5 -1 11 -9 15 -8 3 -15 1 -15 -4z"/>
<path d="M6230 5290 c0 -5 5 -10 10 -10 6 0 10 5 10 10 0 6 -4 10 -10 10 -5 0
-10 -4 -10 -10z"/>
<path d="M3860 5245 c0 -8 5 -15 10 -15 6 0 10 7 10 15 0 8 -4 15 -10 15 -5 0
-10 -7 -10 -15z"/>
<path d="M6700 5246 c0 -8 4 -17 8 -20 4 -2 8 4 8 15 0 10 -4 19 -8 19 -4 0
-8 -6 -8 -14z"/>
<path d="M6552 5232 c-17 -11 -6 -39 19 -45 10 -3 19 -2 19 3 0 4 -10 10 -22
13 -18 5 -19 8 -8 21 14 18 12 20 -8 8z"/>
<path d="M3880 5214 c0 -3 6 -12 14 -19 17 -17 30 -7 15 12 -12 13 -29 18 -29
7z"/>
<path d="M3852 5190 c0 -14 2 -19 5 -12 2 6 2 18 0 25 -3 6 -5 1 -5 -13z"/>
<path d="M3850 5144 l-25 -14 28 2 c15 1 27 8 27 15 0 7 -1 13 -2 12 -2 -1
-14 -7 -28 -15z"/>
<path d="M3956 5126 c3 -8 12 -12 20 -9 21 8 17 23 -6 23 -13 0 -18 -5 -14
-14z"/>
<path d="M3870 5110 c0 -5 5 -10 10 -10 6 0 10 5 10 10 0 6 -4 10 -10 10 -5 0
-10 -4 -10 -10z"/>
<path d="M6305 5060 c-3 -5 1 -10 10 -10 9 0 13 5 10 10 -3 6 -8 10 -10 10 -2
0 -7 -4 -10 -10z"/>
<path d="M3966 4995 c4 -8 8 -15 10 -15 2 0 4 7 4 15 0 8 -4 15 -10 15 -5 0
-7 -7 -4 -15z"/>
<path d="M6465 5000 c-3 -5 -1 -10 4 -10 6 0 11 5 11 10 0 6 -2 10 -4 10 -3 0
-8 -4 -11 -10z"/>
<path d="M6665 4990 c3 -5 11 -10 16 -10 6 0 7 5 4 10 -3 6 -11 10 -16 10 -6
0 -7 -4 -4 -10z"/>
<path d="M3920 4986 c0 -2 7 -7 16 -10 8 -3 12 -2 9 4 -6 10 -25 14 -25 6z"/>
<path d="M6520 4980 c0 -5 5 -10 11 -10 5 0 7 5 4 10 -3 6 -8 10 -11 10 -2 0
-4 -4 -4 -10z"/>
<path d="M6462 4968 c-2 -21 -38 -25 -45 -5 -3 6 -6 3 -6 -8 -1 -12 -6 -26
-11 -31 -12 -12 6 -64 22 -64 18 0 40 31 34 47 -5 13 -4 14 8 4 10 -9 16 -9
21 -1 4 6 14 9 22 6 8 -3 11 -1 8 5 -4 5 -15 7 -25 4 -15 -5 -19 0 -23 27 -2
18 -5 25 -5 16z m-22 -48 c0 -5 -4 -10 -10 -10 -5 0 -10 5 -10 10 0 6 5 10 10
10 6 0 10 -4 10 -10z"/>
<path d="M6620 4970 c-12 -8 -12 -10 -1 -10 9 0 11 -7 8 -21 -4 -15 -2 -19 9
-15 12 5 14 1 9 -17 -4 -12 -12 -26 -18 -32 -7 -7 -8 -5 -4 6 3 10 -4 21 -21
31 -38 21 -55 17 -63 -15 -6 -22 -5 -27 6 -24 7 3 23 -4 35 -15 29 -27 96 -31
92 -5 -3 20 9 22 26 5 7 -7 12 -8 12 -4 0 4 -11 17 -26 28 -20 16 -24 26 -19
49 4 19 3 29 -5 29 -6 0 -8 5 -5 10 8 13 -15 13 -35 0z m-10 -96 c0 -8 -5 -12
-10 -9 -6 4 -8 11 -5 16 9 14 15 11 15 -7z m50 -18 c0 -3 -4 -8 -10 -11 -5 -3
-10 -1 -10 4 0 6 5 11 10 11 6 0 10 -2 10 -4z"/>
<path d="M3939 4949 c-11 -7 -11 -9 3 -9 9 0 23 -3 32 -6 9 -3 16 -2 16 4 0
14 -35 21 -51 11z"/>
<path d="M6546 4952 c-3 -5 1 -9 9 -9 8 0 12 4 9 9 -3 4 -7 8 -9 8 -2 0 -6 -4
-9 -8z"/>
<path d="M3881 4934 c0 -11 3 -14 6 -6 3 7 2 16 -1 19 -3 4 -6 -2 -5 -13z"/>
<path d="M3825 4921 c-3 -6 4 -15 15 -21 22 -12 23 -10 14 14 -7 18 -20 21
-29 7z"/>
<path d="M6487 4873 c-4 -3 -7 -13 -7 -22 1 -13 3 -13 11 2 11 19 8 33 -4 20z"/>
<path d="M6370 4849 c0 -5 5 -7 10 -4 6 3 10 8 10 11 0 2 -4 4 -10 4 -5 0 -10
-5 -10 -11z"/>
<path d="M6410 4827 c0 -9 -5 -16 -11 -14 -17 3 -22 -20 -5 -26 9 -4 16 3 21
20 3 14 4 28 0 31 -3 3 -5 -2 -5 -11z"/>
<path d="M6445 4829 c-4 -6 -5 -12 -2 -15 2 -3 7 2 10 11 7 17 1 20 -8 4z"/>
<path d="M6481 4784 c0 -11 3 -14 6 -6 3 7 2 16 -1 19 -3 4 -6 -2 -5 -13z"/>
<path d="M6613 4783 c9 -2 23 -2 30 0 6 3 -1 5 -18 5 -16 0 -22 -2 -12 -5z"/>
<path d="M6673 4764 c1 -11 -4 -18 -10 -16 -17 3 -16 -13 1 -27 11 -9 15 -6
19 16 3 16 2 32 -3 37 -4 4 -7 0 -7 -10z"/>
<path d="M6425 4761 c-3 -5 -1 -12 5 -16 5 -3 10 1 10 9 0 18 -6 21 -15 7z"/>
<path d="M6534 4752 c-15 -18 -20 -19 -24 -7 -4 12 -7 12 -17 -4 -10 -16 -8
-18 17 -19 31 -1 55 19 48 40 -3 8 -11 5 -24 -10z"/>
<path d="M6424 4681 c-4 -18 -11 -28 -19 -25 -18 7 -27 -22 -11 -35 8 -7 22
-8 36 -3 16 6 20 11 11 16 -7 5 -9 20 -5 42 3 19 3 34 0 34 -4 0 -9 -13 -12
-29z m3 -47 c-3 -3 -12 -4 -19 -1 -8 3 -5 6 6 6 11 1 17 -2 13 -5z"/>
<path d="M6355 4669 c-4 -6 -5 -12 -2 -15 2 -3 7 2 10 11 7 17 1 20 -8 4z"/>
<path d="M6460 4670 c0 -5 5 -10 10 -10 6 0 10 5 10 10 0 6 -4 10 -10 10 -5 0
-10 -4 -10 -10z"/>
<path d="M6628 4588 c6 -6 21 -13 33 -15 18 -3 20 -1 9 12 -7 8 -22 15 -33 15
-16 0 -18 -3 -9 -12z"/>
<path d="M6704 4568 c-4 -6 -8 -22 -10 -36 -2 -18 0 -22 9 -13 6 6 12 22 13
36 1 28 -1 31 -12 13z"/>
<path d="M6607 4553 c-4 -3 -7 -11 -7 -17 0 -6 5 -5 12 2 6 6 9 14 7 17 -3 3
-9 2 -12 -2z"/>
<path d="M6621 4521 c-11 -7 -9 -10 8 -16 24 -7 44 2 36 16 -8 11 -26 11 -44
0z"/>
<path d="M6306 4502 c-2 -4 4 -9 15 -9 10 -1 19 2 19 8 0 11 -27 12 -34 1z"/>
<path d="M6442 4498 c-14 -14 -16 -28 -3 -28 9 0 24 30 18 36 -2 2 -9 -2 -15
-8z"/>
<path d="M6710 4500 c0 -5 -6 -10 -13 -10 -19 0 -53 -27 -45 -36 4 -4 14 -1
23 6 18 15 45 6 45 -16 0 -13 -3 -14 -15 -4 -10 9 -15 9 -15 1 0 -6 5 -11 10
-11 6 0 13 -1 17 -2 4 -2 10 10 14 25 6 23 5 28 -7 23 -12 -4 -14 -1 -9 14 4
11 4 20 1 20 -3 0 -6 -4 -6 -10z"/>
<path d="M6444 4449 c-3 -6 -22 -9 -40 -7 -23 3 -34 0 -34 -9 0 -7 7 -13 15
-13 8 0 14 -3 13 -7 -2 -13 14 -43 23 -43 6 0 5 8 -1 19 -15 28 -14 29 25 26
21 -1 40 4 47 13 10 12 8 13 -12 10 -16 -2 -24 2 -22 10 3 15 -4 16 -14 1z"/>
<path d="M6660 4420 c0 -5 5 -10 11 -10 5 0 7 5 4 10 -3 6 -8 10 -11 10 -2 0
-4 -4 -4 -10z"/>
<path d="M6290 4379 c0 -5 5 -7 10 -4 6 3 10 8 10 11 0 2 -4 4 -10 4 -5 0 -10
-5 -10 -11z"/>
<path d="M6447 4383 c-4 -3 -7 -11 -7 -17 0 -6 5 -5 12 2 6 6 9 14 7 17 -3 3
-9 2 -12 -2z"/>
<path d="M6583 4323 c-16 -6 -17 -39 -2 -48 13 -9 16 -6 24 28 7 26 3 31 -22
20z"/>
<path d="M6520 4310 c0 -5 5 -10 10 -10 6 0 10 5 10 10 0 6 -4 10 -10 10 -5 0
-10 -4 -10 -10z"/>
<path d="M6667 4314 c-4 -4 -7 -17 -7 -28 1 -19 1 -20 11 -3 11 19 8 43 -4 31z"/>
<path d="M6326 4263 c21 -15 40 -17 48 -4 3 5 -10 11 -30 13 -32 4 -34 3 -18
-9z"/>
<path d="M6152 4255 c-11 -12 -10 -15 3 -15 8 0 15 7 15 15 0 18 -2 18 -18 0z"/>
<path d="M6354 4225 c-4 -8 -10 -12 -15 -9 -5 3 -9 0 -9 -5 0 -6 7 -11 16 -11
12 0 14 -3 6 -13 -11 -13 -2 -39 14 -39 5 0 8 -4 7 -9 -2 -5 4 -9 13 -9 14 0
14 3 4 15 -10 12 -10 19 -2 27 9 9 12 9 12 -1 0 -7 5 -9 11 -6 6 4 8 10 5 13
-3 3 -1 11 4 17 7 8 4 18 -10 30 -19 18 -20 17 -20 -4 0 -13 -4 -20 -11 -16
-6 4 -8 13 -5 21 3 8 1 14 -5 14 -5 0 -12 -7 -15 -15z"/>
<path d="M6110 4170 c0 -11 2 -20 4 -20 2 0 6 9 9 20 3 11 1 20 -4 20 -5 0 -9
-9 -9 -20z"/>
<path d="M6276 4135 c4 -8 10 -12 15 -9 14 8 10 24 -6 24 -9 0 -12 -6 -9 -15z"/>
<path d="M6490 4140 c20 -13 40 -13 40 0 0 6 -12 10 -27 10 -22 0 -25 -2 -13
-10z"/>
<path d="M6300 4120 c0 -5 -7 -10 -16 -10 -9 0 -14 -6 -11 -12 2 -7 11 -12 18
-10 8 2 22 4 31 5 22 2 24 23 2 31 -21 8 -24 8 -24 -4z"/>
<path d="M6350 4106 c0 -2 7 -6 15 -10 8 -3 15 -1 15 4 0 6 -7 10 -15 10 -8 0
-15 -2 -15 -4z"/>
<path d="M6468 4069 c2 -16 9 -29 14 -29 6 0 8 7 4 15 -3 9 0 15 10 15 20 0
10 16 -14 22 -15 4 -17 0 -14 -23z"/>
<path d="M6359 4058 c-12 -23 -30 -23 -23 0 2 9 -1 7 -7 -5 -7 -13 -16 -23
-21 -23 -4 0 -8 -4 -8 -8 0 -4 15 -8 32 -7 18 0 33 5 33 11 0 7 11 20 23 31
24 19 24 19 2 19 -12 0 -26 -8 -31 -18z"/>
<path d="M6237 4054 c3 -7 9 -14 14 -14 14 0 10 17 -5 23 -10 4 -13 1 -9 -9z"/>
<path d="M6660 4050 c0 -5 5 -10 11 -10 5 0 7 5 4 10 -3 6 -8 10 -11 10 -2 0
-4 -4 -4 -10z"/>
<path d="M6560 4040 c0 -5 7 -10 15 -10 8 0 15 5 15 10 0 6 -7 10 -15 10 -8 0
-15 -4 -15 -10z"/>
<path d="M6230 4020 c0 -5 5 -10 11 -10 5 0 7 5 4 10 -3 6 -8 10 -11 10 -2 0
-4 -4 -4 -10z"/>
<path d="M6205 3990 c-3 -5 -1 -10 4 -10 6 0 11 5 11 10 0 6 -2 10 -4 10 -3 0
-8 -4 -11 -10z"/>
<path d="M6280 3985 c0 -8 5 -15 10 -15 6 0 10 7 10 15 0 8 -4 15 -10 15 -5 0
-10 -7 -10 -15z"/>
<path d="M6165 3970 c-3 -5 -1 -10 4 -10 6 0 11 5 11 10 0 6 -2 10 -4 10 -3 0
-8 -4 -11 -10z"/>
<path d="M6000 3959 c0 -5 5 -7 10 -4 6 3 10 8 10 11 0 2 -4 4 -10 4 -5 0 -10
-5 -10 -11z"/>
<path d="M6240 3962 c0 -7 -14 -12 -31 -12 -27 0 -30 -2 -19 -15 7 -8 18 -15
26 -15 15 0 39 38 30 48 -3 3 -6 0 -6 -6z"/>
<path d="M6028 3943 c7 -3 16 -2 19 1 4 3 -2 6 -13 5 -11 0 -14 -3 -6 -6z"/>
<path d="M6100 3910 c-13 -8 -12 -10 3 -10 9 0 17 5 17 10 0 12 -1 12 -20 0z"/>
<path d="M6557 3884 c3 -7 9 -14 14 -14 14 0 10 17 -5 23 -10 4 -13 1 -9 -9z"/>
<path d="M6345 3870 c-3 -5 -1 -10 4 -10 6 0 11 5 11 10 0 6 -2 10 -4 10 -3 0
-8 -4 -11 -10z"/>
<path d="M4787 3839 c7 -7 15 -10 18 -7 3 3 -2 9 -12 12 -14 6 -15 5 -6 -5z"/>
<path d="M6275 3810 c-3 -5 0 -7 9 -4 8 3 16 -2 19 -13 4 -14 5 -14 6 5 1 22
-22 31 -34 12z"/>
<path d="M6190 3799 c0 -5 5 -7 10 -4 6 3 10 8 10 11 0 2 -4 4 -10 4 -5 0 -10
-5 -10 -11z"/>
<path d="M6077 3793 c-7 -10 32 -47 40 -39 3 2 -4 14 -15 26 -11 12 -22 17
-25 13z"/>
<path d="M6060 3760 c0 -5 5 -10 11 -10 5 0 7 5 4 10 -3 6 -8 10 -11 10 -2 0
-4 -4 -4 -10z"/>
<path d="M6240 3746 c-7 -14 -10 -34 -7 -46 4 -17 0 -22 -24 -27 -16 -3 -29
-10 -29 -15 0 -6 13 -8 31 -4 17 3 38 6 46 6 12 0 13 3 4 14 -8 10 -9 16 -1
21 9 6 14 -14 11 -42 -1 -7 5 -13 13 -13 8 0 22 -10 31 -22 l17 -23 -7 25 c-4
14 -13 28 -19 32 -7 5 -4 8 7 8 10 0 15 5 12 10 -4 6 -1 17 5 25 10 12 10 15
-2 15 -8 0 -19 -5 -26 -12 -8 -8 -14 -5 -22 16 -5 15 -10 34 -10 42 0 22 -15
17 -30 -10z"/>
<path d="M4810 3744 c0 -8 5 -12 10 -9 6 4 8 11 5 16 -9 14 -15 11 -15 -7z"/>
<path d="M5975 3730 c-3 -5 -1 -10 4 -10 6 0 11 5 11 10 0 6 -2 10 -4 10 -3 0
-8 -4 -11 -10z"/>
<path d="M6195 3720 c-3 -5 -1 -10 4 -10 6 0 11 5 11 10 0 6 -2 10 -4 10 -3 0
-8 -4 -11 -10z"/>
<path d="M6073 3700 c-11 -16 -10 -18 2 -14 8 4 15 12 15 20 0 19 -3 18 -17
-6z"/>
<path d="M6425 3680 c-3 -5 -1 -10 4 -10 6 0 11 5 11 10 0 6 -2 10 -4 10 -3 0
-8 -4 -11 -10z"/>
<path d="M6370 3645 c0 -8 2 -15 4 -15 2 0 11 -3 20 -6 23 -9 20 9 -4 24 -17
10 -20 10 -20 -3z"/>
<path d="M6160 3640 c0 -5 4 -10 10 -10 5 0 7 -7 4 -15 -4 -8 -2 -15 4 -15 15
0 22 26 9 39 -14 14 -27 14 -27 1z"/>
<path d="M6270 3610 c0 -5 4 -10 9 -10 6 0 13 5 16 10 3 6 -1 10 -9 10 -9 0
-16 -4 -16 -10z"/>
<path d="M6240 3580 c0 -5 7 -10 15 -10 8 0 15 5 15 10 0 6 -7 10 -15 10 -8 0
-15 -4 -15 -10z"/>
<path d="M6290 3574 c0 -8 5 -12 10 -9 6 3 10 10 10 16 0 5 -4 9 -10 9 -5 0
-10 -7 -10 -16z"/>
<path d="M5900 3549 c0 -5 5 -7 10 -4 6 3 10 8 10 11 0 2 -4 4 -10 4 -5 0 -10
-5 -10 -11z"/>
<path d="M6228 3536 c-16 -11 -16 -14 -1 -28 12 -13 22 -14 45 -6 29 10 33 29
7 36 -11 3 -11 2 -1 -6 11 -7 10 -10 -3 -16 -23 -8 -23 -8 -27 13 -3 17 -6 18
-20 7z"/>
<path d="M5845 3500 c-19 -7 -19 -8 5 -18 14 -5 27 -7 30 -4 3 2 -1 7 -8 9 -6
3 -10 9 -6 14 6 10 6 10 -21 -1z"/>
<path d="M6050 3497 c0 -17 32 -47 49 -47 9 0 11 -8 8 -21 -5 -19 -4 -20 12
-5 10 9 23 16 29 16 21 0 13 -20 -13 -32 -14 -6 -25 -18 -25 -25 0 -10 11 -5
30 14 17 15 30 36 30 45 0 11 8 18 20 18 17 0 19 2 8 14 -7 8 -14 10 -16 6 -2
-5 -10 -6 -18 -3 -8 3 -14 -1 -14 -9 0 -7 -9 -14 -20 -14 -11 0 -20 5 -20 10
0 5 -3 7 -6 3 -8 -7 -34 17 -34 32 0 6 -4 11 -10 11 -5 0 -10 -6 -10 -13z"/>
<path d="M5770 3471 c0 -9 30 -24 36 -18 2 1 -6 8 -16 15 -11 7 -20 8 -20 3z"/>
<path d="M6020 3475 c-12 -74 3 -103 38 -75 12 10 22 24 22 32 0 10 -2 10 -8
1 -6 -9 -12 -8 -24 6 -8 10 -18 24 -21 32 -3 8 -6 10 -7 4z"/>
<path d="M6230 3469 c0 -5 5 -7 10 -4 6 3 10 8 10 11 0 2 -4 4 -10 4 -5 0 -10
-5 -10 -11z"/>
<path d="M5710 3450 c0 -5 5 -10 10 -10 6 0 10 5 10 10 0 6 -4 10 -10 10 -5 0
-10 -4 -10 -10z"/>
<path d="M5740 3445 c0 -7 30 -13 34 -7 3 4 -4 9 -15 9 -10 1 -19 0 -19 -2z"/>
<path d="M5800 3430 c0 -5 5 -10 10 -10 6 0 10 -8 10 -17 0 -15 2 -16 10 -3 5
9 5 19 -2 27 -12 15 -28 17 -28 3z"/>
<path d="M6248 3409 c-10 -5 -18 -15 -18 -20 0 -6 4 -8 9 -4 5 3 12 1 16 -5 4
-6 11 -8 16 -4 6 3 5 12 -3 22 -11 13 -10 15 5 9 9 -3 17 -2 17 3 0 13 -20 12
-42 -1z"/>
<path d="M5930 3404 c0 -3 7 -13 16 -21 13 -13 13 -18 2 -25 -11 -8 -11 -9 0
-6 8 2 13 7 13 11 -1 4 -1 16 -1 27 0 11 -7 20 -15 20 -8 0 -15 -3 -15 -6z"/>
<path d="M5777 3370 c3 -11 7 -20 8 -20 1 0 5 9 8 20 3 12 0 20 -8 20 -8 0
-11 -8 -8 -20z"/>
<path d="M5815 3360 c3 -5 8 -10 11 -10 2 0 4 5 4 10 0 6 -5 10 -11 10 -5 0
-7 -4 -4 -10z"/>
<path d="M6109 3351 c8 -6 10 -14 5 -22 -18 -30 -13 -40 19 -37 31 3 52 28 23
28 -9 0 -16 8 -16 20 0 14 -7 20 -22 20 -17 0 -19 -3 -9 -9z"/>
<path d="M6273 3329 c-1 -16 2 -29 7 -29 12 0 13 47 3 53 -5 3 -9 -8 -10 -24z"/>
<path d="M5850 3340 c0 -5 5 -10 11 -10 5 0 7 5 4 10 -3 6 -8 10 -11 10 -2 0
-4 -4 -4 -10z"/>
<path d="M5906 3291 c-4 -5 3 -7 14 -4 23 6 26 13 6 13 -8 0 -17 -4 -20 -9z"/>
<path d="M6000 3274 c0 -13 18 -39 24 -34 2 3 -2 14 -10 24 -8 11 -14 16 -14
10z"/>
<path d="M6190 3276 c0 -2 7 -7 16 -10 8 -3 12 -2 9 4 -6 10 -25 14 -25 6z"/>
<path d="M5987 3224 c-3 -4 1 -13 9 -21 8 -8 12 -23 9 -33 -3 -10 -1 -21 4
-24 6 -4 7 -14 4 -23 -5 -13 -3 -13 20 2 27 17 27 17 27 -6 0 -32 13 -14 16
21 2 34 4 33 -30 20 -21 -7 -26 -6 -26 5 0 8 7 15 15 15 22 0 18 17 -7 34 -25
18 -32 19 -41 10z"/>
<path d="M5810 3190 c0 -5 5 -10 11 -10 5 0 7 5 4 10 -3 6 -8 10 -11 10 -2 0
-4 -4 -4 -10z"/>
<path d="M5927 3185 c-18 -13 -18 -14 0 -23 15 -8 18 -6 19 14 1 13 1 24 0 24
0 0 -9 -7 -19 -15z"/>
<path d="M5970 3193 c1 -18 18 -35 24 -24 4 6 4 16 1 21 -7 12 -25 13 -25 3z"/>
<path d="M5600 3165 c-10 -12 -10 -15 4 -15 9 0 16 7 16 15 0 8 -2 15 -4 15
-2 0 -9 -7 -16 -15z"/>
<path d="M6125 3160 c3 -5 1 -10 -4 -10 -6 0 -11 -9 -11 -21 0 -15 -5 -19 -15
-15 -8 3 -15 1 -15 -4 0 -6 6 -10 13 -10 21 0 40 17 33 29 -4 6 -2 11 3 11 6
0 11 7 11 15 0 8 -5 15 -11 15 -5 0 -7 -4 -4 -10z"/>
<path d="M5640 3126 c5 -13 6 -27 3 -30 -10 -10 17 -7 38 4 10 6 19 18 19 27
0 12 -3 13 -15 3 -11 -10 -18 -9 -30 4 -22 22 -26 20 -15 -8z"/>
<path d="M6188 3143 c6 -2 18 -2 25 0 6 3 1 5 -13 5 -14 0 -19 -2 -12 -5z"/>
<path d="M5905 3124 c-14 -14 -18 -15 -25 -3 -5 7 -13 10 -17 5 -4 -5 -2 -11
5 -13 6 -3 13 -17 13 -31 1 -21 2 -23 6 -7 3 11 15 28 26 37 11 10 18 21 15
24 -3 3 -13 -3 -23 -12z"/>
<path d="M5810 3095 c-11 -13 -10 -14 4 -9 9 3 16 10 16 15 0 13 -6 11 -20 -6z"/>
<path d="M5710 3090 c0 -5 5 -10 11 -10 5 0 7 5 4 10 -3 6 -8 10 -11 10 -2 0
-4 -4 -4 -10z"/>
<path d="M5536 3064 c-3 -8 -11 -12 -17 -8 -7 4 -9 3 -6 -4 8 -11 47 -4 47 9
0 16 -18 19 -24 3z"/>
<path d="M5700 3060 c0 -5 5 -10 11 -10 5 0 7 5 4 10 -3 6 -8 10 -11 10 -2 0
-4 -4 -4 -10z"/>
<path d="M5795 3043 c8 -7 21 -13 29 -13 9 0 16 6 16 13 0 8 -12 14 -29 14
-24 0 -27 -3 -16 -14z"/>
<path d="M5575 3040 c3 -5 -1 -10 -10 -10 -9 0 -13 -5 -10 -10 5 -8 11 -7 21
1 17 14 18 29 3 29 -5 0 -7 -4 -4 -10z"/>
<path d="M5625 3040 c-3 -5 -1 -10 4 -10 6 0 11 5 11 10 0 6 -2 10 -4 10 -3 0
-8 -4 -11 -10z"/>
<path d="M5987 3003 c3 -7 0 -19 -6 -27 -12 -15 -4 -76 11 -76 5 0 7 -4 3 -9
-3 -5 -1 -12 5 -16 14 -9 12 19 -2 33 -10 10 -10 15 2 22 13 8 13 11 1 19 -23
15 -9 30 19 19 20 -7 22 -11 10 -18 -8 -5 -11 -12 -7 -16 11 -11 45 38 39 58
-3 13 -10 16 -28 12 -13 -3 -24 -2 -24 3 0 5 -6 10 -14 10 -8 0 -12 -6 -9 -14z"/>
<path d="M5915 3000 c-3 -5 -1 -10 4 -10 6 0 11 5 11 10 0 6 -2 10 -4 10 -3 0
-8 -4 -11 -10z"/>
<path d="M5461 2991 c-7 -5 -12 -14 -10 -20 2 -6 10 -2 17 9 14 22 13 23 -7
11z"/>
<path d="M5560 2991 c0 -13 30 -22 52 -16 10 4 16 11 13 16 -8 12 -65 12 -65
0z"/>
<path d="M6080 2989 c0 -5 5 -7 10 -4 6 3 10 8 10 11 0 2 -4 4 -10 4 -5 0 -10
-5 -10 -11z"/>
<path d="M5783 2976 c3 -8 1 -17 -6 -20 -7 -2 -4 -5 6 -5 11 -1 17 6 17 19 0
11 -5 20 -11 20 -6 0 -9 -6 -6 -14z"/>
<path d="M5830 2980 c0 -5 5 -10 11 -10 5 0 7 5 4 10 -3 6 -8 10 -11 10 -2 0
-4 -4 -4 -10z"/>
<path d="M5545 2959 c-4 -6 -5 -12 -2 -15 7 -7 37 7 37 17 0 13 -27 11 -35 -2z"/>
<path d="M5633 2942 c0 -17 4 -29 8 -26 4 2 10 0 14 -6 10 -17 25 -11 25 10 0
11 -5 20 -11 20 -7 0 -17 7 -24 16 -10 14 -12 12 -12 -14z"/>
<path d="M5929 2958 c-1 -7 -1 -30 1 -52 1 -23 -2 -36 -8 -32 -13 8 -44 -28
-58 -70 -10 -31 -10 -35 3 -30 8 3 24 6 35 6 14 0 19 6 17 23 -2 12 2 31 8 42
6 11 16 37 21 58 9 33 9 38 -4 33 -17 -7 -18 6 -2 22 9 9 9 12 0 12 -7 0 -13
-6 -13 -12z"/>
<path d="M5810 2949 c0 -5 5 -7 10 -4 6 3 10 8 10 11 0 2 -4 4 -10 4 -5 0 -10
-5 -10 -11z"/>
<path d="M5880 2951 c0 -6 5 -13 10 -16 6 -3 10 1 10 9 0 9 -4 16 -10 16 -5 0
-10 -4 -10 -9z"/>
<path d="M5730 2885 c0 -8 5 -15 10 -15 6 0 10 7 10 15 0 8 -4 15 -10 15 -5 0
-10 -7 -10 -15z"/>
<path d="M6025 2890 c-3 -5 -2 -10 4 -10 5 0 13 5 16 10 3 6 2 10 -4 10 -5 0
-13 -4 -16 -10z"/>
<path d="M5792 2879 c2 -7 10 -15 17 -17 8 -3 12 1 9 9 -2 7 -10 15 -17 17 -8
3 -12 -1 -9 -9z"/>
<path d="M6170 2880 c-9 -6 -10 -10 -3 -10 6 0 15 5 18 10 8 12 4 12 -15 0z"/>
<path d="M5525 2851 c-6 -5 -19 -11 -30 -13 -19 -4 -19 -4 1 -10 14 -3 27 1
38 13 16 19 8 27 -9 10z"/>
<path d="M5712 2841 c10 -16 15 -17 26 -8 12 9 11 12 -5 18 -30 12 -34 10 -21
-10z"/>
<path d="M5776 2837 c3 -10 9 -15 12 -12 3 3 0 11 -7 18 -10 9 -11 8 -5 -6z"/>
<path d="M1920 2820 c-13 -8 -13 -10 2 -10 9 0 20 5 23 10 8 13 -5 13 -25 0z"/>
<path d="M5826 2822 c-3 -6 -1 -14 5 -17 14 -9 20 -2 10 14 -6 8 -11 9 -15 3z"/>
<path d="M5560 2810 c0 -5 5 -10 11 -10 5 0 7 5 4 10 -3 6 -8 10 -11 10 -2 0
-4 -4 -4 -10z"/>
<path d="M5945 2811 c3 -5 0 -11 -6 -13 -6 -2 -9 -16 -7 -32 l3 -28 25 20 c24
20 24 21 3 15 -27 -6 -30 5 -7 22 16 11 16 12 0 18 -9 4 -15 3 -11 -2z"/>
<path d="M5790 2790 c0 -11 0 -23 -1 -27 0 -4 4 -9 9 -11 5 -1 9 11 8 28 -1
33 -16 42 -16 10z"/>
<path d="M5505 2760 c-16 -7 -17 -9 -3 -9 9 -1 20 4 23 9 7 11 7 11 -20 0z"/>
<path d="M5243 2733 c-7 -3 -13 -13 -13 -24 0 -10 -6 -19 -12 -19 -7 0 -24
-10 -38 -21 l-25 -20 25 6 25 6 -21 -19 c-21 -17 -21 -19 -4 -40 16 -19 20
-20 30 -7 7 8 23 15 36 15 17 0 24 6 24 20 0 11 6 20 13 20 9 0 11 12 8 43 -2
23 -6 36 -8 29 -4 -10 -7 -10 -17 1 -6 8 -17 13 -23 10z m27 -63 c0 -5 -4 -10
-9 -10 -5 0 -11 -8 -14 -19 -2 -10 -16 -20 -31 -23 -30 -6 -36 11 -7 19 11 3
21 13 24 24 5 19 37 27 37 9z"/>
<path d="M5700 2720 c0 -14 -7 -20 -22 -21 -22 0 -22 -1 2 -10 19 -8 22 -12
10 -19 -11 -6 -7 -10 16 -16 16 -4 32 -11 35 -16 3 -5 25 -8 48 -6 l43 3 -21
24 c-14 16 -28 22 -45 19 -17 -4 -23 -1 -19 9 3 7 0 13 -7 13 -7 0 -10 6 -7
14 3 8 -1 17 -9 20 -23 9 -24 8 -24 -14z"/>
<path d="M5900 2729 c0 -5 5 -7 10 -4 6 3 10 8 10 11 0 2 -4 4 -10 4 -5 0 -10
-5 -10 -11z"/>
<path d="M1692 2688 c-17 -17 -15 -28 4 -28 8 0 12 -5 9 -10 -8 -13 13 -40 30
-40 19 0 26 41 9 57 -8 8 -14 11 -14 6 0 -4 -6 0 -14 9 -10 13 -15 15 -24 6z"/>
<path d="M2153 2693 c-7 -2 -13 -9 -13 -14 0 -6 4 -7 10 -4 5 3 21 -2 35 -11
29 -19 36 0 8 22 -19 14 -22 15 -40 7z"/>
<path d="M5832 2670 c12 -19 28 -27 28 -14 0 7 -27 34 -34 34 -4 0 -1 -9 6
-20z"/>
<path d="M1635 2670 c-3 -5 1 -10 9 -10 9 0 16 5 16 10 0 6 -4 10 -9 10 -6 0
-13 -4 -16 -10z"/>
<path d="M1607 2649 c7 -7 15 -10 18 -7 3 3 -2 9 -12 12 -14 6 -15 5 -6 -5z"/>
<path d="M1657 2631 c5 -19 33 -19 33 1 0 5 -4 6 -10 3 -5 -3 -10 -1 -10 4 0
6 -4 11 -9 11 -5 0 -7 -9 -4 -19z"/>
<path d="M5570 2634 c0 -8 -4 -12 -10 -9 -5 3 -10 -1 -10 -10 0 -8 -7 -18 -15
-21 -22 -9 -18 -23 5 -17 11 3 17 9 14 14 -3 5 0 9 5 9 6 0 11 -9 11 -20 0
-12 -7 -20 -17 -20 -9 0 -13 -3 -10 -7 4 -3 18 0 32 7 18 10 28 10 38 2 8 -7
18 -8 23 -4 5 4 1 -2 -9 -14 -19 -23 -24 -45 -6 -27 6 6 18 9 26 6 9 -4 16 2
20 16 5 21 23 30 23 11 0 -6 17 0 37 14 20 14 41 22 46 19 5 -3 8 0 5 8 -11
33 -108 37 -108 4 0 -20 -30 -19 -60 2 -22 16 -23 16 -17 -1 4 -10 3 -15 -3
-11 -14 9 -12 26 5 45 13 14 12 16 -5 17 -12 1 -20 -4 -20 -13z m145 -54 c3
-5 -1 -10 -9 -10 -9 0 -16 5 -16 10 0 6 4 10 9 10 6 0 13 -4 16 -10z"/>
<path d="M1784 2605 c3 -8 -2 -19 -12 -24 -16 -10 -16 -10 0 -11 9 0 20 5 23
10 4 6 16 8 27 4 14 -4 18 -2 14 5 -4 6 -14 11 -22 11 -8 0 -14 5 -14 10 0 6
-5 10 -11 10 -6 0 -9 -7 -5 -15z"/>
<path d="M2260 2592 c0 -4 14 -22 30 -40 17 -18 30 -38 30 -45 0 -6 6 -3 13 8
12 16 10 22 -19 51 -31 32 -54 43 -54 26z"/>
<path d="M5096 2571 c-19 -7 -19 -8 0 -13 13 -3 21 0 21 8 0 8 -1 14 -1 13 -1
0 -10 -4 -20 -8z"/>
<path d="M5135 2570 c3 -5 8 -10 11 -10 2 0 4 5 4 10 0 6 -5 10 -11 10 -5 0
-7 -4 -4 -10z"/>
<path d="M5460 2560 c0 -11 4 -20 10 -20 5 0 6 -7 3 -17 -4 -11 -3 -14 5 -9
15 9 10 66 -5 66 -7 0 -13 -9 -13 -20z"/>
<path d="M1850 2561 c0 -6 4 -13 10 -16 6 -3 7 1 4 9 -7 18 -14 21 -14 7z"/>
<path d="M5205 2550 c-3 -5 -1 -10 4 -10 6 0 11 5 11 10 0 6 -2 10 -4 10 -3 0
-8 -4 -11 -10z"/>
<path d="M2366 2541 c-4 -6 -3 -18 3 -24 5 -7 8 -22 5 -34 -6 -24 14 -42 26
-23 6 10 9 9 13 -1 4 -12 7 -11 16 1 16 22 13 40 -6 47 -10 4 -25 16 -34 27
-11 14 -18 16 -23 7z"/>
<path d="M1820 2530 c-12 -7 -10 -9 7 -7 12 0 19 5 17 9 -6 10 -6 10 -24 -2z"/>
<path d="M5560 2515 c14 -17 -12 -38 -36 -28 -18 6 -18 6 -2 -10 9 -10 24 -14
33 -11 11 5 18 0 22 -15 4 -16 10 -20 26 -15 17 5 19 3 13 -21 -5 -20 -3 -26
6 -22 7 2 12 16 10 31 -2 22 1 26 22 26 14 0 28 -4 31 -10 3 -5 11 -10 18 -10
8 0 8 3 -1 12 -7 7 -12 27 -12 45 0 23 -5 33 -15 33 -9 0 -15 -9 -15 -25 0
-14 -4 -25 -10 -25 -5 0 -10 7 -10 16 0 9 -8 14 -17 13 -36 -3 -46 0 -35 14 8
9 4 12 -14 13 -19 2 -22 -1 -14 -11z"/>
<path d="M5210 2501 c0 -9 30 -24 36 -18 2 1 -6 8 -16 15 -11 7 -20 8 -20 3z"/>
<path d="M1846 2485 c-8 -22 -8 -21 7 -37 6 -8 17 -23 23 -33 6 -11 19 -21 28
-23 12 -3 16 4 16 27 l0 31 20 -20 c11 -11 20 -23 20 -27 0 -5 11 -8 25 -8 26
0 33 9 14 21 -6 3 -8 17 -5 30 5 17 2 24 -9 24 -8 0 -15 -7 -15 -15 0 -8 -4
-15 -10 -15 -5 0 -10 4 -10 10 0 18 -33 48 -46 43 -9 -3 -10 -11 -3 -30 12
-32 11 -43 -2 -43 -15 0 -49 44 -39 50 5 3 5 11 1 19 -6 10 -10 9 -15 -4z"/>
<path d="M5145 2480 c3 -5 8 -10 11 -10 2 0 4 5 4 10 0 6 -5 10 -11 10 -5 0
-7 -4 -4 -10z"/>
<path d="M5031 2444 c0 -11 3 -14 6 -6 3 7 2 16 -1 19 -3 4 -6 -2 -5 -13z"/>
<path d="M5500 2429 c0 -5 5 -7 10 -4 6 3 10 8 10 11 0 2 -4 4 -10 4 -5 0 -10
-5 -10 -11z"/>
<path d="M2026 2413 c-6 -14 -5 -15 5 -6 7 7 10 15 7 18 -3 3 -9 -2 -12 -12z"/>
<path d="M5226 2413 c-6 -14 -5 -15 5 -6 7 7 10 15 7 18 -3 3 -9 -2 -12 -12z"/>
<path d="M5465 2409 c-4 -6 -5 -12 -2 -15 2 -3 7 2 10 11 7 17 1 20 -8 4z"/>
<path d="M5580 2400 c-9 -6 -10 -10 -3 -10 6 0 15 5 18 10 8 12 4 12 -15 0z"/>
<path d="M2081 2384 c0 -11 3 -14 6 -6 3 7 2 16 -1 19 -3 4 -6 -2 -5 -13z"/>
<path d="M5370 2380 c-6 -11 -9 -20 -8 -20 2 0 11 9 21 20 9 11 13 20 7 20 -5
0 -14 -9 -20 -20z"/>
<path d="M2020 2380 c0 -5 10 -10 23 -10 18 0 19 2 7 10 -19 13 -30 13 -30 0z"/>
<path d="M5270 2381 c0 -5 7 -12 16 -15 14 -5 15 -4 4 9 -14 17 -20 19 -20 6z"/>
<path d="M2537 2356 c-6 -16 2 -28 14 -20 12 7 11 34 0 34 -5 0 -11 -6 -14
-14z"/>
<path d="M2064 2344 c-18 -13 -18 -14 -1 -8 11 4 23 0 31 -11 11 -15 14 -15
18 -3 9 23 -26 40 -48 22z"/>
<path d="M2599 2337 c-16 -22 -15 -23 9 -35 20 -9 28 -9 34 1 10 16 10 25 -2
32 -5 3 -10 1 -10 -4 0 -6 -4 -11 -9 -11 -5 0 -7 9 -4 20 7 26 2 25 -18 -3z"/>
<path d="M2150 2306 c0 -2 7 -6 15 -10 8 -3 15 -1 15 4 0 6 -7 10 -15 10 -8 0
-15 -2 -15 -4z"/>
<path d="M2210 2300 c0 -5 5 -10 11 -10 5 0 7 5 4 10 -3 6 -8 10 -11 10 -2 0
-4 -4 -4 -10z"/>
<path d="M2687 2290 c-3 -13 -4 -26 -2 -29 3 -2 5 1 5 7 0 7 5 12 11 12 6 0 8
-9 4 -21 -5 -15 -4 -19 4 -15 6 4 11 3 11 -3 0 -16 42 -52 79 -68 24 -10 32
-19 28 -32 -3 -14 1 -18 20 -18 20 0 24 3 19 21 -3 11 -6 29 -6 39 0 11 -5 15
-11 11 -6 -3 -15 -1 -19 6 -6 9 -12 9 -29 1 -14 -8 -21 -8 -21 -1 0 5 5 10 10
10 6 0 -2 14 -17 30 -14 17 -32 30 -38 30 -7 0 -19 10 -27 22 l-15 22 -6 -24z"/>
<path d="M5464 2289 c0 -11 5 -18 10 -16 16 5 18 24 4 30 -9 3 -14 -3 -14 -14z"/>
<path d="M2216 2256 c10 -8 21 -12 24 -10 5 6 -21 24 -34 24 -6 0 -1 -6 10
-14z"/>
<path d="M4895 2250 c-3 -5 -2 -10 4 -10 5 0 13 5 16 10 3 6 2 10 -4 10 -5 0
-13 -4 -16 -10z"/>
<path d="M5359 2252 c-1 -4 -1 -11 0 -16 1 -5 -6 -18 -16 -29 -11 -13 -13 -17
-3 -12 22 14 50 39 50 46 0 9 -30 20 -31 11z"/>
<path d="M2270 2220 c0 -5 5 -10 10 -10 6 0 10 5 10 10 0 6 -4 10 -10 10 -5 0
-10 -4 -10 -10z"/>
<path d="M4850 2220 c0 -5 5 -10 10 -10 6 0 10 5 10 10 0 6 -4 10 -10 10 -5 0
-10 -4 -10 -10z"/>
<path d="M2330 2210 c0 -5 -3 -9 -7 -9 -20 3 -23 -2 -8 -17 18 -19 20 -18 29
14 5 13 3 22 -3 22 -6 0 -11 -4 -11 -10z"/>
<path d="M4940 2216 c0 -2 7 -7 16 -10 8 -3 12 -2 9 4 -6 10 -25 14 -25 6z"/>
<path d="M5390 2199 c0 -5 5 -7 10 -4 6 3 10 8 10 11 0 2 -4 4 -10 4 -5 0 -10
-5 -10 -11z"/>
<path d="M4930 2185 c0 -8 2 -15 4 -15 2 0 6 7 10 15 3 8 1 15 -4 15 -6 0 -10
-7 -10 -15z"/>
<path d="M2275 2170 c3 -5 8 -10 11 -10 2 0 4 5 4 10 0 6 -5 10 -11 10 -5 0
-7 -4 -4 -10z"/>
<path d="M2378 2169 c-10 -5 -18 -17 -18 -24 0 -23 16 -17 28 10 6 14 11 25 9
25 -1 0 -10 -5 -19 -11z"/>
<path d="M4810 2170 c-13 -8 -12 -10 3 -10 9 0 17 5 17 10 0 12 -1 12 -20 0z"/>
<path d="M5125 2170 c3 -5 8 -10 11 -10 2 0 4 5 4 10 0 6 -5 10 -11 10 -5 0
-7 -4 -4 -10z"/>
<path d="M2780 2150 c0 -5 7 -7 15 -4 8 4 15 8 15 10 0 2 -7 4 -15 4 -8 0 -15
-4 -15 -10z"/>
<path d="M2330 2140 c0 -5 5 -10 10 -10 6 0 10 5 10 10 0 6 -4 10 -10 10 -5 0
-10 -4 -10 -10z"/>
<path d="M2394 2126 c-9 -20 -8 -24 18 -34 15 -5 28 -7 28 -2 0 5 3 15 6 24 4
11 0 16 -14 16 -11 0 -22 4 -24 10 -1 5 -8 -1 -14 -14z"/>
<path d="M2903 2125 c-3 -9 -3 -18 0 -21 9 -9 27 6 27 22 0 19 -19 18 -27 -1z"/>
<path d="M2478 2092 c-10 -2 -15 -9 -12 -17 3 -8 12 -11 20 -8 7 3 17 -2 20
-11 3 -9 10 -16 15 -16 10 0 0 31 -15 45 -6 6 -19 9 -28 7z"/>
<path d="M2870 2090 c0 -5 5 -10 11 -10 7 0 20 -10 31 -22 19 -22 20 -22 16
-3 -2 13 3 20 12 20 10 0 14 -8 12 -26 -3 -22 2 -29 26 -37 17 -6 33 -20 37
-31 3 -12 11 -21 16 -21 5 0 9 -4 9 -9 0 -5 -10 -7 -22 -3 -14 3 -19 2 -14 -7
4 -6 11 -9 15 -6 5 2 16 -2 27 -9 15 -11 20 -12 29 -1 6 9 17 10 30 5 17 -7
17 -9 3 -9 -31 -2 -8 -31 23 -31 22 0 29 -5 29 -20 0 -11 5 -20 11 -20 7 0 9
9 6 21 -4 16 -3 19 5 11 15 -15 2 -43 -22 -49 -24 -6 -27 -21 -3 -19 9 0 22
-10 29 -23 12 -22 12 -23 18 -3 6 18 11 19 38 11 20 -5 36 -5 43 1 7 6 21 7
30 3 13 -4 16 -3 11 5 -10 17 6 15 30 -3 17 -13 17 -14 2 -15 -10 0 -18 -5
-18 -10 0 -6 -7 -6 -19 1 -10 7 -26 9 -35 6 -21 -8 -10 -36 12 -30 10 2 28 -7
41 -21 28 -30 43 -32 61 -11 9 11 16 12 31 2 25 -16 24 -30 -1 -22 -25 8 -26
-10 -2 -25 14 -10 14 -11 0 -6 -10 3 -18 -3 -22 -17 -7 -28 -2 -31 23 -16 11
7 24 9 28 5 4 -5 2 -11 -5 -13 -14 -5 -6 -23 10 -23 6 0 9 3 5 6 -10 11 22 36
38 30 8 -3 15 -1 15 4 0 6 7 10 15 10 8 0 15 5 15 10 0 6 -11 8 -25 4 -23 -6
-33 4 -18 19 3 4 7 18 9 31 2 18 -2 23 -15 19 -9 -2 -29 7 -45 22 -21 20 -25
29 -17 39 13 16 -9 29 -33 20 -8 -3 -21 4 -29 16 -13 19 -18 20 -35 9 -17 -10
-23 -10 -36 0 -9 7 -14 17 -11 21 6 10 -43 35 -52 26 -4 -3 -15 12 -25 34 -10
22 -21 40 -24 40 -3 0 -3 -4 1 -9 14 -23 -18 -20 -40 3 -27 29 -37 33 -29 12
11 -28 -15 -25 -27 3 -7 16 -18 27 -24 24 -7 -2 -18 3 -25 12 -9 11 -16 12
-26 4 -16 -13 -54 5 -54 26 0 23 28 18 35 -6 5 -14 10 -18 17 -11 13 13 -21
72 -42 72 -8 0 -29 -4 -46 -9 -18 -5 -37 -5 -47 1 -11 6 -17 5 -17 -2z m335
-169 c3 -5 1 -12 -5 -16 -5 -3 -10 1 -10 9 0 18 6 21 15 7z m75 -69 c0 -4 -9
-15 -20 -24 -22 -20 -39 -5 -20 17 13 16 40 20 40 7z m101 -115 c-12 -12 -31
0 -31 19 0 12 3 12 20 2 11 -7 16 -16 11 -21z m94 -47 c3 -5 1 -10 -4 -10 -6
0 -11 5 -11 10 0 6 2 10 4 10 3 0 8 -4 11 -10z"/>
<path d="M4900 2080 c0 -5 5 -10 10 -10 6 0 10 5 10 10 0 6 -4 10 -10 10 -5 0
-10 -4 -10 -10z"/>
<path d="M5234 2065 c4 -11 -3 -19 -21 -26 -20 -7 -24 -12 -14 -18 7 -5 12
-12 11 -17 -1 -5 3 -10 9 -12 6 -2 10 6 9 20 -3 20 1 22 30 20 36 -4 41 7 14
31 -23 21 -46 22 -38 2z"/>
<path d="M2580 2050 c0 -5 5 -10 10 -10 6 0 10 5 10 10 0 6 -4 10 -10 10 -5 0
-10 -4 -10 -10z"/>
<path d="M2355 2040 c3 -5 8 -10 11 -10 2 0 4 5 4 10 0 6 -5 10 -11 10 -5 0
-7 -4 -4 -10z"/>
<path d="M2487 2019 c-21 -12 -13 -31 10 -22 13 5 15 2 10 -11 -4 -11 -3 -16
4 -14 6 2 10 7 9 12 -1 5 4 12 10 16 21 13 -22 30 -43 19z"/>
<path d="M2570 2019 c0 -5 5 -7 10 -4 6 3 10 8 10 11 0 2 -4 4 -10 4 -5 0 -10
-5 -10 -11z"/>
<path d="M2641 1991 l-24 -6 27 -12 c26 -12 35 -32 16 -34 -5 -1 -14 -3 -20
-4 -5 -1 -16 -3 -22 -4 -22 -3 14 -18 60 -26 23 -4 42 -3 43 2 0 4 2 16 4 26
2 13 -1 17 -10 13 -8 -3 -17 -1 -20 4 -4 6 -1 10 4 10 6 0 11 4 11 10 0 5 -7
7 -15 4 -9 -4 -15 0 -15 10 0 17 -2 18 -39 7z"/>
<path d="M2918 1993 c7 -3 16 -2 19 1 4 3 -2 6 -13 5 -11 0 -14 -3 -6 -6z"/>
<path d="M5167 1978 c3 -13 10 -29 16 -36 14 -18 1 -27 -18 -12 -8 7 -24 10
-35 7 -11 -3 -20 -1 -20 5 0 5 -5 6 -10 3 -6 -4 -8 -10 -5 -15 3 -5 -2 -21
-12 -36 -17 -27 -17 -27 4 -15 12 6 25 16 28 21 10 16 25 12 19 -5 -8 -20 -2
-19 40 6 39 23 45 36 20 46 -8 3 -13 11 -10 19 3 7 -1 18 -9 24 -11 9 -12 7
-8 -12z"/>
<path d="M2564 1979 c-8 -14 14 -29 41 -28 17 1 17 2 3 6 -10 2 -18 11 -18 19
0 17 -16 19 -26 3z"/>
<path d="M5215 1960 c3 -5 8 -10 11 -10 2 0 4 5 4 10 0 6 -5 10 -11 10 -5 0
-7 -4 -4 -10z"/>
<path d="M4945 1943 c-19 -15 -19 -15 8 -9 21 5 27 3 27 -10 0 -21 24 -12 29
11 2 12 -1 16 -12 12 -8 -3 -18 -2 -23 3 -5 5 -18 2 -29 -7z"/>
<path d="M2750 1946 c0 -2 7 -7 16 -10 8 -3 12 -2 9 4 -6 10 -25 14 -25 6z"/>
<path d="M2832 1923 c-6 -3 -9 -9 -6 -15 4 -6 1 -14 -6 -18 -15 -9 -50 -1 -50
11 0 5 -7 9 -15 9 -24 0 -17 -29 8 -35 19 -5 22 -13 22 -50 0 -49 10 -65 28
-46 9 11 9 14 0 18 -7 3 -13 9 -13 14 0 17 45 56 58 51 10 -3 10 -7 -2 -16
-18 -13 -25 -41 -11 -41 6 0 9 5 7 12 -2 7 2 13 8 13 5 0 10 -4 10 -10 0 -6
10 -5 25 2 40 18 24 58 -22 58 -24 0 -32 15 -12 22 8 3 7 7 -2 15 -8 5 -20 8
-27 6z"/>
<path d="M5025 1881 c-4 -17 -11 -29 -16 -25 -5 3 -9 0 -9 -5 0 -6 -11 -11
-25 -11 -14 0 -25 -4 -25 -9 0 -14 27 -20 38 -9 8 8 16 8 27 -2 12 -10 15 -10
15 3 0 9 7 20 15 25 14 7 14 12 1 36 l-14 28 -7 -31z"/>
<path d="M3048 1893 c7 -3 16 -2 19 1 4 3 -2 6 -13 5 -11 0 -14 -3 -6 -6z"/>
<path d="M4851 1874 c0 -11 3 -14 6 -6 3 7 2 16 -1 19 -3 4 -6 -2 -5 -13z"/>
<path d="M4925 1870 c-3 -5 -2 -10 4 -10 5 0 13 5 16 10 3 6 2 10 -4 10 -5 0
-13 -4 -16 -10z"/>
<path d="M4894 1851 c4 -5 0 -12 -6 -14 -8 -3 -6 -6 5 -6 10 -1 15 -5 12 -11
-3 -5 0 -10 8 -10 16 0 18 31 2 42 -14 11 -27 10 -21 -1z"/>
<path d="M2920 1800 c0 -5 5 -10 11 -10 5 0 7 5 4 10 -3 6 -8 10 -11 10 -2 0
-4 -4 -4 -10z"/>
<path d="M5084 1802 c-14 -10 -26 -42 -14 -42 5 0 16 7 24 16 26 25 18 45 -10
26z"/>
<path d="M2856 1768 c3 -4 17 -8 31 -8 15 0 23 3 19 8 -10 10 -56 10 -50 0z"/>
<path d="M4825 1760 c-3 -5 -1 -10 4 -10 6 0 11 5 11 10 0 6 -2 10 -4 10 -3 0
-8 -4 -11 -10z"/>
<path d="M5037 1743 c-4 -3 -7 -11 -7 -17 0 -6 5 -5 12 2 6 6 9 14 7 17 -3 3
-9 2 -12 -2z"/>
<path d="M3040 1731 c0 -5 7 -11 15 -15 9 -3 15 0 15 9 0 8 -7 15 -15 15 -8 0
-15 -4 -15 -9z"/>
<path d="M2875 1710 c3 -5 8 -10 11 -10 2 0 4 5 4 10 0 6 -5 10 -11 10 -5 0
-7 -4 -4 -10z"/>
<path d="M2995 1703 c-3 -10 -1 -19 4 -21 16 -5 13 -22 -3 -22 -12 0 -13 -6
-4 -31 8 -22 13 -27 19 -18 4 8 3 16 -3 20 -6 4 -2 16 13 33 21 24 24 25 40
10 16 -14 17 -14 15 3 -2 10 -13 19 -24 21 -12 2 -22 8 -22 13 0 16 -28 10
-35 -8z"/>
<path d="M3117 1686 c-6 -15 1 -26 15 -26 4 0 8 9 8 20 0 23 -15 27 -23 6z"/>
<path d="M3359 1696 c0 -1 -1 -16 -2 -35 -1 -23 3 -36 13 -38 13 -4 13 -3 0 6
-13 10 -13 12 0 20 8 6 11 13 7 17 -4 4 -2 12 3 19 7 8 5 12 -5 12 -8 0 -15
-1 -16 -1z"/>
<path d="M3572 1672 c-7 -5 -10 -16 -6 -25 4 -12 1 -17 -12 -17 -16 0 -17 -2
-3 -15 9 -9 22 -13 31 -10 17 7 20 37 4 48 -8 5 -6 10 4 17 8 5 11 10 5 10 -5
0 -16 -4 -23 -8z"/>
<path d="M3159 1649 c-8 -5 -22 -6 -32 -3 -9 3 -24 -2 -33 -10 -8 -9 -11 -16
-5 -16 6 0 8 -6 5 -14 -4 -10 2 -16 18 -18 19 -2 23 -9 21 -36 -1 -26 2 -32
14 -28 12 5 14 1 10 -14 -3 -14 0 -19 12 -18 36 3 49 -3 54 -24 4 -12 1 -28
-5 -35 -7 -9 -7 -13 1 -13 6 0 11 4 11 10 0 5 7 7 15 4 8 -4 17 1 21 10 3 9
13 16 20 16 12 0 12 -5 -1 -30 -20 -39 -12 -51 26 -43 21 4 34 1 40 -8 6 -11
9 -8 9 9 0 14 -6 22 -17 23 -11 0 -13 3 -5 6 6 2 12 9 12 15 0 13 26 38 39 38
15 0 14 20 -1 21 -7 1 -23 3 -36 4 -12 1 -25 -2 -28 -6 -11 -18 -24 -8 -20 15
3 17 1 23 -8 20 -9 -3 -11 4 -8 26 2 18 0 30 -7 30 -6 0 -11 -16 -11 -35 0
-21 5 -35 12 -35 8 0 9 -3 2 -10 -7 -7 -19 -8 -37 -1 -32 13 -34 22 -6 39 16
11 18 16 9 28 -9 10 -9 14 -1 14 24 0 9 21 -19 26 -16 4 -28 10 -25 13 8 14
-32 39 -46 30z m14 -30 c3 -13 1 -19 -6 -16 -15 5 -22 37 -9 37 5 0 12 -9 15
-21z m37 -50 c0 -5 -4 -9 -10 -9 -5 0 -10 7 -10 16 0 8 5 12 10 9 6 -3 10 -10
10 -16z m122 -114 c0 -5 -5 -11 -10 -13 -5 -1 -9 4 -9 13 0 9 4 14 9 13 5 -2
10 -8 10 -13z"/>
<path d="M4873 1637 c-16 -9 -20 -16 -13 -27 8 -13 10 -12 10 3 0 10 5 15 10
12 6 -3 10 0 10 7 1 8 6 6 15 -6 16 -22 31 -16 22 9 -8 18 -24 19 -54 2z"/>
<path d="M3030 1615 c0 -8 2 -15 4 -15 2 0 6 7 10 15 3 8 1 15 -4 15 -6 0 -10
-7 -10 -15z"/>
<path d="M3490 1615 c0 -8 4 -15 9 -15 5 0 11 7 15 15 3 9 0 15 -9 15 -8 0
-15 -7 -15 -15z"/>
<path d="M3405 1590 c-3 -5 -1 -10 4 -10 6 0 11 5 11 10 0 6 -2 10 -4 10 -3 0
-8 -4 -11 -10z"/>
<path d="M3030 1580 c0 -5 5 -10 11 -10 5 0 7 5 4 10 -3 6 -8 10 -11 10 -2 0
-4 -4 -4 -10z"/>
<path d="M3470 1580 c0 -5 5 -10 10 -10 6 0 10 5 10 10 0 6 -4 10 -10 10 -5 0
-10 -4 -10 -10z"/>
<path d="M3518 1564 c-6 -13 -8 -27 -3 -32 4 -4 10 -1 12 6 3 6 11 12 19 12 7
0 11 -6 8 -14 -3 -8 0 -17 6 -21 17 -10 21 -2 14 33 -8 40 -41 50 -56 16z"/>
<path d="M3590 1580 c-8 -5 -10 -10 -4 -10 14 0 25 -38 13 -45 -12 -8 0 -35
16 -35 13 0 12 24 -2 72 -6 21 -11 25 -23 18z"/>
<path d="M3074 1565 c11 -8 15 -19 11 -27 -6 -10 -5 -10 4 -2 15 14 3 44 -18
44 -14 -1 -14 -2 3 -15z"/>
<path d="M5130 1572 c0 -7 5 -12 10 -12 6 0 10 -9 10 -20 0 -11 5 -20 10 -20
17 0 11 26 -10 45 -11 10 -20 13 -20 7z"/>
<path d="M3475 1519 c-11 -16 -1 -19 13 -3 7 8 8 14 3 14 -5 0 -13 -5 -16 -11z"/>
<path d="M3055 1510 c3 -5 8 -10 11 -10 2 0 4 5 4 10 0 6 -5 10 -11 10 -5 0
-7 -4 -4 -10z"/>
<path d="M5130 1501 c0 -6 5 -13 10 -16 6 -3 10 1 10 9 0 9 -4 16 -10 16 -5 0
-10 -4 -10 -9z"/>
<path d="M4721 1482 c-15 -28 -14 -32 9 -32 14 0 19 6 17 20 -5 30 -14 34 -26
12z"/>
<path d="M4796 1483 c-6 -14 -5 -15 5 -6 7 7 10 15 7 18 -3 3 -9 -2 -12 -12z"/>
<path d="M3571 1483 c-1 -17 16 -25 25 -12 4 7 3 9 -4 5 -5 -3 -13 0 -15 6 -4
9 -6 10 -6 1z"/>
<path d="M3750 1474 c0 -8 9 -14 19 -14 24 0 35 -15 27 -37 -5 -12 -9 -13 -20
-4 -11 10 -15 8 -19 -6 -3 -12 -5 -8 -6 10 -2 40 -30 35 -82 -16 -24 -24 -50
-51 -57 -60 -14 -19 -32 -22 -32 -7 0 6 7 10 15 10 8 0 15 4 15 9 0 5 -7 14
-15 21 -10 8 -15 9 -15 1 0 -6 -12 -14 -26 -17 -16 -4 -23 -12 -20 -20 3 -8
-1 -14 -9 -14 -18 0 -18 1 -5 36 9 22 8 25 -2 17 -7 -6 -35 -9 -61 -8 -56 4
-62 -16 -6 -23 36 -4 66 -22 36 -22 -18 0 -13 -25 9 -47 17 -18 27 -16 44 7
17 24 40 26 40 5 0 -8 5 -15 11 -15 6 0 8 9 4 20 -8 24 7 26 39 5 21 -14 24
-13 42 6 l19 22 -35 -6 c-21 -4 -30 -4 -21 2 8 5 11 16 6 30 -7 23 10 28 35
10 13 -9 12 -10 -2 -5 -12 3 -18 0 -18 -9 0 -12 5 -12 27 -4 15 6 34 16 42 22
11 9 13 9 8 0 -4 -6 -2 -13 5 -15 12 -4 23 -48 12 -48 -4 0 -12 7 -18 15 -10
13 -13 11 -23 -15 -10 -27 -9 -33 13 -57 13 -14 24 -22 24 -17 0 5 7 0 15 -10
8 -11 15 -15 15 -9 0 6 -7 16 -15 23 -18 15 -20 34 -3 24 8 -5 9 -2 5 9 -4 11
-1 17 9 17 11 0 13 6 8 22 -6 21 -5 22 12 8 10 -8 20 -15 22 -16 1 -1 0 -9 -4
-18 -3 -9 -10 -13 -16 -10 -5 3 -4 -3 3 -14 14 -22 56 -35 65 -20 3 5 12 7 20
4 8 -3 17 1 20 8 3 8 14 12 26 8 18 -4 19 -3 8 17 -9 18 -14 20 -26 11 -11
-10 -16 -7 -24 15 -5 14 -10 31 -10 36 0 5 -7 9 -16 9 -8 0 -13 4 -9 9 3 6 -1
15 -8 22 -14 14 -11 62 4 53 5 -3 9 -3 9 0 0 3 -10 10 -21 17 -15 8 -19 8 -15
0 4 -6 3 -11 -3 -11 -5 0 -12 9 -16 19 -7 22 -55 35 -55 15z m83 -123 c-4 -3
-11 -10 -15 -15 -5 -5 -8 0 -8 12 0 15 4 20 16 15 9 -3 12 -9 7 -12z"/>
<path d="M4575 1470 c-3 -5 -1 -10 4 -10 6 0 11 5 11 10 0 6 -2 10 -4 10 -3 0
-8 -4 -11 -10z"/>
<path d="M5063 1465 c-9 -24 1 -27 20 -5 14 17 15 20 2 20 -9 0 -18 -7 -22
-15z"/>
<path d="M3398 1459 c-19 -11 -25 -49 -8 -49 6 0 10 10 10 23 0 18 2 19 10 7
15 -23 12 -38 -7 -42 -10 -2 -13 -6 -8 -10 6 -3 21 -2 34 3 19 8 21 12 11 24
-8 10 -9 15 -2 15 6 0 16 -8 21 -17 14 -25 14 -7 0 20 -20 36 -34 42 -61 26z"/>
<path d="M4650 1441 c0 -12 5 -21 10 -21 6 0 10 6 10 14 0 8 -4 18 -10 21 -5
3 -10 -3 -10 -14z"/>
<path d="M4500 1430 c0 -5 5 -10 10 -10 6 0 10 5 10 10 0 6 -4 10 -10 10 -5 0
-10 -4 -10 -10z"/>
<path d="M4765 1430 c3 -5 10 -10 16 -10 5 0 9 5 9 10 0 6 -7 10 -16 10 -8 0
-12 -4 -9 -10z"/>
<path d="M4471 1414 c0 -11 3 -14 6 -6 3 7 2 16 -1 19 -3 4 -6 -2 -5 -13z"/>
<path d="M3240 1410 c0 -5 5 -10 11 -10 5 0 7 5 4 10 -3 6 -8 10 -11 10 -2 0
-4 -4 -4 -10z"/>
<path d="M3490 1404 c0 -8 5 -12 10 -9 6 4 8 11 5 16 -9 14 -15 11 -15 -7z"/>
<path d="M4713 1392 c-13 -2 -23 -8 -23 -13 0 -9 37 -3 49 7 8 7 -4 10 -26 6z"/>
<path d="M4557 1379 c7 -7 15 -10 18 -7 3 3 -2 9 -12 12 -14 6 -15 5 -6 -5z"/>
<path d="M3245 1360 c-3 -5 -1 -10 4 -10 6 0 11 5 11 10 0 6 -2 10 -4 10 -3 0
-8 -4 -11 -10z"/>
<path d="M3275 1350 c3 -5 8 -10 11 -10 2 0 4 5 4 10 0 6 -5 10 -11 10 -5 0
-7 -4 -4 -10z"/>
<path d="M4600 1350 c0 -13 18 -22 24 -11 3 5 -1 11 -9 15 -8 3 -15 1 -15 -4z"/>
<path d="M3890 1330 c0 -5 5 -10 10 -10 6 0 10 5 10 10 0 6 -4 10 -10 10 -5 0
-10 -4 -10 -10z"/>
<path d="M3613 1267 c5 -14 2 -16 -18 -11 -14 3 -25 3 -25 -1 0 -14 42 -65 53
-65 7 0 6 4 -3 10 -10 6 -11 10 -2 10 6 0 12 10 12 21 0 16 5 20 18 17 12 -4
24 3 32 16 11 18 11 19 -1 11 -17 -12 -39 -13 -58 -1 -11 7 -13 5 -8 -7z"/>
<path d="M3930 1230 c0 -5 -7 -10 -15 -10 -16 0 -19 -18 -7 -37 5 -9 13 -1 24
22 8 19 12 35 7 35 -5 0 -9 -4 -9 -10z"/>
<path d="M3977 1233 c-11 -11 -8 -20 7 -20 8 0 12 6 9 14 -6 15 -7 15 -16 6z"/>
<path d="M3667 1223 c-10 -9 -9 -53 1 -53 4 0 13 -14 21 -30 9 -22 16 -28 25
-21 7 6 23 8 37 5 21 -4 22 -3 4 5 -19 9 -18 12 7 15 6 0 13 13 15 29 2 15 0
26 -4 25 -4 -1 -22 6 -40 15 -34 18 -55 21 -66 10z"/>
<path d="M4020 1200 c0 -6 -11 -8 -25 -4 -16 4 -25 2 -25 -6 0 -10 26 -23 47
-22 11 1 24 42 13 42 -6 0 -10 -5 -10 -10z"/>
<path d="M4869 1171 c-5 -30 -2 -34 21 -37 14 -1 19 0 13 2 -7 3 -13 12 -13
19 0 17 -19 31 -21 16z"/>
<path d="M3865 1160 c3 -5 10 -10 16 -10 5 0 9 5 9 10 0 6 -7 10 -16 10 -8 0
-12 -4 -9 -10z"/>
<path d="M3963 1150 c1 -11 5 -20 9 -20 4 0 8 9 8 20 0 11 -4 20 -9 20 -6 0
-9 -9 -8 -20z"/>
<path d="M3918 1143 c6 -2 18 -2 25 0 6 3 1 5 -13 5 -14 0 -19 -2 -12 -5z"/>
<path d="M4011 1126 c-9 -11 -9 -16 0 -21 10 -7 28 10 29 28 0 12 -17 8 -29
-7z"/>
<path d="M4050 1100 c0 -5 5 -10 10 -10 6 0 10 5 10 10 0 6 -4 10 -10 10 -5 0
-10 -4 -10 -10z"/>
<path d="M4103 1063 c-7 -15 -9 -29 -4 -32 4 -3 11 -16 15 -28 8 -27 46 -32
46 -7 0 12 3 14 13 6 8 -7 18 -6 31 4 16 12 18 16 7 27 -11 9 -14 9 -18 0 -9
-24 -20 -13 -15 14 5 26 4 27 -12 10 -30 -29 -63 -19 -45 14 5 11 6 19 2 19
-4 0 -14 -12 -20 -27z m47 -63 c0 -5 -4 -10 -10 -10 -5 0 -10 5 -10 10 0 6 5
10 10 10 6 0 10 -4 10 -10z"/>
<path d="M4215 920 c-3 -5 -1 -10 4 -10 6 0 11 5 11 10 0 6 -2 10 -4 10 -3 0
-8 -4 -11 -10z"/>
<path d="M4231 901 c-12 -8 -13 -12 -1 -26 10 -13 15 -13 21 -3 20 30 8 46
-20 29z"/>
<path d="M4325 830 c-3 -5 -1 -10 4 -10 6 0 11 5 11 10 0 6 -2 10 -4 10 -3 0
-8 -4 -11 -10z"/>
<path d="M4365 790 c-3 -5 1 -10 9 -10 8 0 19 -7 24 -17 9 -15 11 -14 21 4 8
17 7 22 -5 27 -23 9 -42 7 -49 -4z"/>
</g>
</svg>
